<svg width="69" height="52" viewBox="0 0 69 52" fill="none" xmlns="http://www.w3.org/2000/svg">
<g id="Group 14301">
<path id="Vector" d="M43.809 47.4564C43.4599 47.0845 43.3171 46.9341 43.1663 46.7837C41.8227 45.3697 41.8545 43.9557 43.2615 42.5417C43.9836 41.8215 44.6977 41.0933 45.4833 40.4523C46.9591 39.2335 48.8872 39.1702 50.3948 40.1595C50.9741 40.5393 51.0296 40.8163 50.5059 41.2991C49.522 42.2172 48.5937 43.1827 47.6415 44.1245C47.34 44.4253 47.0067 44.6944 47.4828 45.1455C48.189 45.8103 48.8238 46.5621 49.5696 47.1794C50.2758 47.773 53.4973 47.5356 54.1479 46.8866C55.6635 45.3908 57.1472 43.8633 58.6707 42.3834C59.1388 41.9323 59.1547 41.6473 58.6707 41.1725C54.8859 37.4369 54.2273 37.9751 50.4742 34.2C49.9267 33.646 49.284 33.6777 48.7285 34.2712C47.4035 35.6879 43.1743 32.633 41.8492 34.0496C41.2699 34.6669 40.9605 34.6749 40.3495 34.0496C36.9138 30.5515 34.1287 27.3462 30.693 23.8402C30.0027 23.1358 29.6456 23.0329 28.8918 23.8085C25.472 27.3225 21.9728 30.7573 18.4974 34.2237C17.9261 34.7936 13.6572 35.0547 13.0463 34.659C12.7527 34.4691 12.832 34.1763 12.832 33.9151C12.832 27.3937 12.832 20.8723 12.8241 14.3589C12.8241 13.9077 12.9034 13.5991 13.3399 13.3537C15.6012 12.0954 17.815 10.7499 20.1002 9.53114C21.703 8.6764 23.2344 9.03254 24.6309 10.1326C25.4085 10.7499 25.591 11.209 24.504 11.7946C22.2584 12.9897 20.0843 14.3114 17.8785 15.5777C17.4342 15.8309 17.0215 16.0209 17.0215 16.6857C17.0533 20.6032 17.0374 24.5129 17.0374 28.4384C17.6008 28.5254 18.4657 28.3355 18.6958 28.0981C22.1156 24.7108 25.5434 21.3314 28.8998 17.8807C29.6694 17.0893 30.0186 17.2397 30.693 17.9282C34.097 21.3947 36.8662 24.5525 40.2543 28.0348C40.9684 28.7708 41.3255 28.6442 41.9365 27.9952C43.206 26.6498 47.3717 29.7838 48.6254 28.4226C49.2602 27.734 49.9425 27.7736 50.5694 28.4067C54.9652 32.8466 55.4016 33.4402 60.6464 37.8643C63.2014 40.4127 65.7881 42.4309 68.3827 44.9397C69.1207 45.652 69.0175 45.9686 68.1764 46.4118C66.4546 47.3219 64.582 47.124 63.1062 45.5728C62.3445 44.7656 61.9557 44.916 61.2812 45.6203C59.5911 47.3931 57.8058 49.0789 56.0999 50.8438C55.5762 51.3819 55.0604 51.6352 54.2908 51.6273C47.8002 51.5956 41.3175 51.5877 34.827 51.6273C33.7479 51.6273 33.5654 51.3186 33.8827 50.361C34.462 48.6278 35.9854 47.4881 38.0088 47.4485C39.8417 47.4169 41.6746 47.4485 43.7773 47.4485L43.809 47.4564Z" fill="#821A5D"/>
<path id="Vector_2" d="M16.1646 47.4164C18.1086 47.4164 19.7829 47.3769 21.4412 47.4243C23.409 47.4797 25.0435 48.8964 25.4244 50.685C25.5672 51.3657 25.4244 51.5873 24.7182 51.5873C19.4813 51.5714 14.2524 51.5714 9.01548 51.5873C8.49973 51.5873 8.16647 51.3894 7.81735 51.0412C5.92889 49.1417 4.0325 47.2423 2.08851 45.3904C1.48547 44.8126 1.59656 44.4723 2.13611 43.95C3.84207 42.3196 5.48455 40.626 7.19051 39.0035C7.75387 38.4654 8.04745 38.0617 7.23812 37.5236C4.68315 35.8299 4.27848 33.4081 4.34196 30.4878C4.51652 22.2173 4.36576 13.9469 4.41337 5.67644C4.41337 4.56052 4.09598 4.29144 3.0248 4.32309C0.580916 4.39432 -0.545809 2.80355 0.255594 0.547975C0.295267 0.429261 0.36668 0.294718 0.461896 0.223489C1.31091 -0.377997 3.93729 0.318461 4.20707 1.31566C4.42924 2.14666 4.85771 2.22581 5.57977 2.21789C10.769 2.19415 15.9583 2.19415 21.1397 2.21789C23.1075 2.21789 24.7103 3.37338 25.3133 5.08287C25.6466 6.03258 25.5593 6.45204 24.3453 6.43621C19.5289 6.36498 14.7126 6.43621 9.89623 6.38081C8.86473 6.36498 8.58701 6.62615 8.58701 7.67084C8.63462 15.7592 8.62669 23.8477 8.59495 31.9361C8.59495 32.7038 8.82505 33.2261 9.37255 33.7326C10.6897 34.9593 11.9354 36.2731 13.2526 37.4919C13.808 37.9984 13.8874 38.2833 13.2843 38.8532C11.499 40.531 9.80895 42.3038 8.04745 44.0133C7.5555 44.4881 7.47616 44.781 7.99985 45.335C10.0549 47.5035 10.0311 47.5193 12.1576 45.3983C13.5303 44.0212 14.9427 42.6837 16.2678 41.267C16.966 40.5231 17.331 40.7922 17.6643 41.5203C18.4022 43.111 18.3705 44.6464 17.2993 46.0947C17.0057 46.4905 16.6566 46.8466 16.1567 47.4164H16.1646Z" fill="#821A5D"/>
<path id="Vector_3" d="M42.357 19.8035C39.0324 19.8589 36.2553 17.1601 36.1601 13.7807C36.0648 10.5359 38.8896 7.61548 42.1904 7.54425C45.5071 7.47302 48.4906 10.3855 48.4747 13.6778C48.4588 17.0097 45.7213 19.7481 42.357 19.7956V19.8035Z" fill="#821A5D"/>
</g>
</svg>
