<svg width="32" height="32" viewBox="0 0 32 32" fill="none" xmlns="http://www.w3.org/2000/svg">
<g id="Frame">
<g id="Group">
<path id="Vector" d="M23.7999 30H8.19995C4.89995 30 2.19995 27.3 2.19995 24V23.8L2.79995 7.8C2.89995 4.5 5.59995 2 8.79995 2H23.2C26.4 2 29.1 4.5 29.2 7.8L29.7999 23.8C29.9 25.4 29.3 26.9 28.2 28.1C27.1 29.3 25.6 30 24 30H23.7999ZM8.79995 4C6.59995 4 4.89995 5.7 4.79995 7.8L4.19995 24C4.19995 26.2 5.99995 28 8.19995 28H24C25.1 28 26.0999 27.5 26.7999 26.7C27.5 25.9 27.9 24.9 27.9 23.8L27.2999 7.8C27.1999 5.6 25.5 4 23.2999 4H8.79995Z" fill="black"/>
<path id="Vector_2" d="M16 14C12.1 14 9 10.9 9 7C9 6.4 9.4 6 10 6C10.6 6 11 6.4 11 7C11 9.8 13.2 12 16 12C18.8 12 21 9.8 21 7C21 6.4 21.4 6 22 6C22.6 6 23 6.4 23 7C23 10.9 19.9 14 16 14Z" fill="black"/>
</g>
</g>
</svg>
