<svg width="56" height="62" viewBox="0 0 56 62" fill="none" xmlns="http://www.w3.org/2000/svg">
<g id="Group">
<path id="Vector" d="M41.1719 47.9531C40.5034 47.9531 39.9609 48.4956 39.9609 49.1641C39.9609 49.8325 40.5034 50.375 41.1719 50.375C41.8403 50.375 42.3828 49.8325 42.3828 49.1641C42.3828 48.4956 41.8403 47.9531 41.1719 47.9531Z" fill="#821A5D"/>
<path id="Vector_2" d="M44.1534 44.0373L38.3979 42.1192L36.3316 37.9866C38.1931 36.092 39.4855 33.5851 39.9213 30.9703L40.179 29.4258H42.3828C44.3859 29.4258 46.0156 27.7961 46.0156 25.793V18.1641C46.0156 8.1484 37.8672 0 27.8516 0C17.8102 0 9.6875 8.12503 9.6875 18.1641V25.793C9.6875 27.3715 10.7 28.7176 12.1094 29.2175V30.6367C12.1094 32.6399 13.7391 34.2695 15.7422 34.2695H16.8056C17.3291 35.4096 18.0131 36.4688 18.8369 37.4148C19.0087 37.6117 19.1866 37.8031 19.3704 37.9889L17.3053 42.1192L11.5496 44.0374C4.85731 46.269 0 53.3141 0 60.7891C0 61.4579 0.542137 62 1.21094 62H54.4922C55.1609 62 55.7031 61.4579 55.7031 60.7891C55.7031 53.3141 50.8459 46.269 44.1534 44.0373ZM43.5938 25.793C43.5938 26.4607 43.0505 27.0039 42.3828 27.0039H40.5347C40.8425 24.6196 41.0476 22.0823 41.1301 19.5833C41.1325 19.5128 41.1345 19.4443 41.1366 19.375H43.5938V25.793ZM13.3203 27.0039C12.6526 27.0039 12.1094 26.4607 12.1094 25.793V19.375H14.5673C14.5713 19.5013 14.5756 19.6282 14.5803 19.756L14.5808 19.7689V19.77C14.6655 22.2006 14.868 24.672 15.1688 27.0038H13.3203V27.0039ZM15.7422 31.8477C15.0745 31.8477 14.5312 31.3044 14.5312 30.6367V29.4258H15.524L15.7817 30.9708C15.8312 31.2651 15.8911 31.5576 15.9611 31.8477H15.7422ZM14.5333 16.9531H12.1554C12.7687 8.8373 19.5417 2.42188 27.8516 2.42188C36.1244 2.42188 42.9272 8.83645 43.5476 16.9531H41.1699C41.0828 10.2655 35.6368 4.84375 28.9355 4.84375H26.7679C20.0667 4.84375 14.6204 10.2655 14.5333 16.9531ZM26.7678 7.26562H28.9354C34.3614 7.26562 38.7531 11.7038 38.75 17.1239C38.75 17.5049 38.747 17.8367 38.7406 18.1386L38.7404 18.1505L37.2258 17.9341C33.111 17.3466 29.2259 15.404 26.2859 12.4641C26.0588 12.237 25.7508 12.1094 25.4297 12.1094C22.1776 12.1094 19.0645 13.5911 17.0066 16.0943C17.5138 11.1635 21.6822 7.26562 26.7678 7.26562ZM18.4716 31.8477C17.8654 29.8311 17.1718 23.8975 17.0185 20.0951L18.6483 17.922C20.1452 15.9269 22.4739 14.6872 24.9511 14.5449C28.2106 17.6469 32.4273 19.6953 36.8833 20.3315L38.6661 20.5863C38.5469 23.1153 38.3034 25.6532 37.9545 27.9873L37.9542 27.9897C37.8433 28.7401 37.7558 29.2231 37.5325 30.5719C36.8912 34.4185 34.021 37.8969 30.2321 38.8442C28.6692 39.2335 27.0346 39.2335 25.4716 38.8442C23.1058 38.2528 20.9365 36.6158 19.5365 34.2695H22.0052C22.505 35.6789 23.851 36.6914 25.4297 36.6914H27.8516C29.8587 36.6914 31.4844 35.0658 31.4844 33.0586C31.4844 31.0555 29.8547 29.4258 27.8516 29.4258H25.4297C23.8159 29.4258 22.4898 30.4682 22.0031 31.8477H18.4716ZM25.3278 41.2949C26.1577 41.4702 27.0034 41.5588 27.8516 41.5594C28.5141 41.5594 29.1767 41.5039 29.8318 41.3964L27.6921 43.6593L25.3278 41.2949ZM26.0273 45.4197L22.1864 49.4814C21.1283 47.4559 20.222 45.3545 19.4753 43.1946L20.9176 40.3099L26.0273 45.4197ZM34.5803 39.8997L36.2276 43.1945C35.4809 45.3551 34.5745 47.4571 33.5161 49.4833L29.4052 45.3724L34.5803 39.8997ZM24.2188 33.0586C24.2188 32.39 24.761 31.8477 25.4297 31.8477H27.8516C28.5193 31.8477 29.0625 32.3909 29.0625 33.0586C29.0625 33.7273 28.5201 34.2695 27.8516 34.2695H25.4297C24.762 34.2695 24.2188 33.7263 24.2188 33.0586ZM2.47031 59.5781C2.95021 53.5793 6.94255 48.1267 12.3155 46.3349L17.4128 44.6362C18.3479 47.2215 19.501 49.7226 20.8595 52.1126L20.8663 52.1248L20.8664 52.125C21.865 53.8795 22.972 55.57 24.181 57.1866L25.6707 59.5781H2.47031ZM27.8516 58.4987L26.2093 55.8621C26.1909 55.8326 26.1713 55.8039 26.1504 55.776C25.1694 54.4666 24.2586 53.1059 23.422 51.6998L27.7405 47.1328L32.291 51.6833C31.4518 53.0952 30.5378 54.4613 29.5529 55.7758C29.4936 55.8549 29.5778 55.7303 27.8516 58.4987ZM30.0325 59.5781L31.522 57.1868C32.7405 55.5578 33.8553 53.8537 34.8599 52.0848C34.8659 52.0742 34.8716 52.0633 34.8777 52.0526L34.8798 52.0488C36.2229 49.6781 37.3637 47.1985 38.2903 44.6362L43.3875 46.3349C48.7606 48.1267 52.7529 53.5793 53.2328 59.5781H30.0325Z" fill="#821A5D"/>
<path id="Vector_3" d="M49.5937 54.6776C48.7844 53.0577 47.599 51.6187 46.1657 50.516C45.6355 50.108 44.8753 50.2072 44.4676 50.7373C44.0597 51.2675 44.1589 52.0277 44.6889 52.4356C45.8337 53.3163 46.7804 54.4658 47.427 55.7599C47.7264 56.3592 48.4542 56.6005 49.0514 56.3021C49.6496 56.0032 49.8924 55.2759 49.5937 54.6776Z" fill="#821A5D"/>
</g>
</svg>
