<svg width="277" height="203" viewBox="0 0 277 203" fill="none" xmlns="http://www.w3.org/2000/svg">
<path d="M203.206 150.357C178.738 150.357 157.111 152.168 143.887 154.954C131.722 150.579 115.559 147.916 97.8152 147.916C59.9938 147.916 29.333 160.027 29.333 174.97C29.333 189.913 59.9938 202.023 97.8152 202.023C135.637 202.023 166.297 189.913 166.297 174.97C166.297 173.519 165.998 172.099 165.446 170.71C176.459 171.716 189.383 172.299 203.206 172.299C243.475 172.299 276.108 167.387 276.108 161.332C276.116 155.261 243.475 150.357 203.206 150.357Z" fill="#EDEEF2"/>
<path d="M156.757 160.116C154.516 160.116 152.436 157.921 152.122 155.227L143.265 80.2445C142.943 77.5506 144.869 75.3633 147.555 75.3633H258.87C261.549 75.3633 263.475 77.5506 263.161 80.2445L254.304 155.227C253.982 157.921 251.902 160.116 249.668 160.116H156.757Z" fill="#F6F6F6"/>
<path d="M258.686 77.0509C260.436 77.0509 261.695 78.4861 261.495 80.2513L252.884 155.234C252.685 156.999 251.318 158.434 249.845 158.434H156.573C155.099 158.434 153.741 156.999 153.534 155.234L144.923 80.2513C144.723 78.4861 145.982 77.0509 147.732 77.0509H258.686ZM259.047 73.6816H147.371C143.748 73.6816 141.162 76.6288 141.6 80.2513L150.702 155.234C151.139 158.857 153.941 161.804 156.941 161.804H249.476C252.477 161.804 255.271 158.857 255.716 155.234L264.818 80.2513C265.256 76.6288 262.669 73.6816 259.047 73.6816Z" fill="#3C4242"/>
<path d="M258.686 77.0527H242.569L238.01 136.156C237.872 137.922 236.513 139.357 234.978 139.357H151.715L153.541 155.228C153.748 156.993 155.107 158.429 156.58 158.429H249.845C251.318 158.429 252.677 156.993 252.884 155.228L261.495 80.2455C261.694 78.4802 260.436 77.0527 258.686 77.0527Z" fill="#EDEEF2"/>
<path d="M258.686 77.0527H252.661L246.076 145.074C245.907 146.84 244.541 148.275 243.029 148.275H152.735L153.534 155.236C153.741 157.001 155.099 158.436 156.573 158.436H249.837C251.31 158.436 252.669 157.001 252.876 155.236L261.487 80.2531C261.694 78.4802 260.436 77.0527 258.686 77.0527Z" fill="#821A5D"/>
<path d="M151.646 95.8398L155.475 132.372" stroke="white" stroke-width="3.36939" stroke-miterlimit="10" stroke-linecap="round" stroke-linejoin="round"/>
<path d="M171.969 148.613C172.038 149.573 171.432 150.355 170.61 150.355H166.666C165.852 150.355 165.115 149.573 165.031 148.613L161.147 103.923C161.063 102.956 161.731 102.181 162.644 102.181H167.019C167.932 102.181 168.715 102.956 168.784 103.923L171.969 148.613Z" fill="#BEBCBD" stroke="#3C4242" stroke-width="3.36939" stroke-miterlimit="10" stroke-linecap="round" stroke-linejoin="round"/>
<path d="M189.321 148.613C189.352 149.573 188.715 150.355 187.894 150.355H183.949C183.128 150.355 182.429 149.573 182.383 148.613L180.265 103.923C180.219 102.956 180.917 102.181 181.823 102.181H186.197C187.103 102.181 187.871 102.956 187.901 103.923L189.321 148.613Z" fill="#BEBCBD" stroke="#3C4242" stroke-width="3.36939" stroke-miterlimit="10" stroke-linecap="round" stroke-linejoin="round"/>
<path d="M206.674 148.613C206.666 149.573 205.998 150.355 205.177 150.355H201.24C200.419 150.355 199.751 149.573 199.743 148.613L199.39 103.923C199.383 102.956 200.112 102.181 201.017 102.181H205.392C206.305 102.181 207.035 102.956 207.027 103.923L206.674 148.613Z" fill="#BEBCBD" stroke="#3C4242" stroke-width="3.36939" stroke-miterlimit="10" stroke-linecap="round" stroke-linejoin="round"/>
<path d="M224.026 148.613C223.98 149.573 223.282 150.355 222.461 150.355H218.516C217.695 150.355 217.058 149.573 217.088 148.613L218.501 103.923C218.531 102.956 219.291 102.181 220.204 102.181H224.579C225.485 102.181 226.191 102.956 226.145 103.923L224.026 148.613Z" fill="#BEBCBD" stroke="#3C4242" stroke-width="3.36939" stroke-miterlimit="10" stroke-linecap="round" stroke-linejoin="round"/>
<path d="M241.379 148.613C241.295 149.573 240.566 150.355 239.744 150.355H235.8C234.978 150.355 234.372 149.573 234.441 148.613L237.619 103.923C237.688 102.956 238.478 102.181 239.384 102.181H243.758C244.664 102.181 245.339 102.956 245.255 103.923L241.379 148.613Z" fill="#BEBCBD" stroke="#3C4242" stroke-width="3.36939" stroke-miterlimit="10" stroke-linecap="round" stroke-linejoin="round"/>
<path d="M163.934 79.48C163.443 80.2398 162.43 80.4623 161.677 79.9711L158.017 77.615C157.257 77.1238 157.034 76.1107 157.525 75.3586L180.227 40.0469C180.719 39.287 181.732 39.0722 182.491 39.5557L186.152 41.9042C186.912 42.3953 187.135 43.4084 186.644 44.1682L163.934 79.48Z" fill="#BEBCBD" stroke="#3C4242" stroke-width="3.36939" stroke-miterlimit="10" stroke-linecap="round" stroke-linejoin="round"/>
<path d="M242.478 79.48C242.969 80.2398 243.982 80.4623 244.742 79.9711L248.402 77.615C249.162 77.1238 249.377 76.1107 248.894 75.3586L226.192 40.0469C225.7 39.287 224.687 39.0722 223.935 39.5557L220.274 41.9042C219.515 42.3953 219.292 43.4084 219.783 44.1682L242.478 79.48Z" fill="#BEBCBD" stroke="#3C4242" stroke-width="3.36939" stroke-miterlimit="10" stroke-linecap="round" stroke-linejoin="round"/>
<path d="M140.035 91.5611C137.448 91.5611 135.345 89.4582 135.345 86.8718V77.7235C135.345 75.1371 137.448 73.0342 140.035 73.0342H266.377C268.963 73.0342 271.066 75.1371 271.066 77.7235V86.8718C271.066 89.4582 268.963 91.5611 266.377 91.5611H140.035Z" fill="#F6F6F6"/>
<path d="M266.384 74.7149C268.05 74.7149 269.393 76.058 269.393 77.7235V86.8718C269.393 88.5296 268.05 89.8803 266.384 89.8803H140.034C138.376 89.8803 137.025 88.5372 137.025 86.8718V77.7235C137.025 76.0657 138.376 74.7149 140.034 74.7149H266.384ZM266.384 71.3457H140.034C136.519 71.3457 133.656 74.2084 133.656 77.7235V86.8718C133.656 90.3869 136.519 93.2496 140.034 93.2496H266.377C269.892 93.2496 272.754 90.3869 272.754 86.8718V77.7235C272.762 74.2084 269.899 71.3457 266.384 71.3457Z" fill="#3C4242"/>
<path d="M266.384 74.7129H260.367V79.2871C260.367 80.9525 259.024 82.2956 257.359 82.2956H137.025V86.8698C137.025 88.5275 138.376 89.8783 140.034 89.8783H266.376C268.042 89.8783 269.385 88.5352 269.385 86.8698V77.7214C269.393 76.0637 268.042 74.7129 266.384 74.7129Z" fill="#821A5D"/>
<path d="M42.9711 115.188C42.7102 115.188 42.4416 115.127 42.2036 115.004L26.1249 106.8C25.534 106.501 25.1733 105.871 25.204 105.211C25.2423 104.544 25.6645 103.968 26.2784 103.73L81.1225 82.6473C81.3144 82.5706 81.5216 82.5322 81.7288 82.5322C81.913 82.5322 82.1049 82.5629 82.2814 82.6243L96.0116 87.3904C96.687 87.6283 97.1475 88.2653 97.1475 88.9791V93.323C97.1475 94.0214 96.7177 94.6431 96.0654 94.8963L43.5698 115.081C43.3779 115.15 43.1783 115.188 42.9711 115.188Z" fill="#EDEEF2"/>
<path d="M81.7364 84.2208L95.4666 88.9869V93.3308L42.971 113.515L26.8923 105.303L81.7364 84.2208ZM81.7364 80.8516C81.3219 80.8516 80.9152 80.9283 80.5238 81.0741L25.6873 102.157C24.444 102.633 23.5998 103.799 23.5307 105.127C23.4616 106.455 24.1754 107.698 25.365 108.304L41.4437 116.509C41.9195 116.754 42.4491 116.877 42.9787 116.877C43.3854 116.877 43.7999 116.8 44.1913 116.654L96.6869 96.4698C97.9916 95.9709 98.8435 94.7199 98.8435 93.3231V88.9792C98.8435 87.544 97.9379 86.2623 96.5794 85.7941L82.8492 81.0281C82.4885 80.913 82.1124 80.8516 81.7364 80.8516Z" fill="#3C4242"/>
<path d="M52.4573 109.856L41.9198 104.813L89.9948 87.0767L81.7367 84.2217L26.8926 105.304L42.9713 113.509L52.4573 109.856Z" fill="#BEBCBD"/>
<path d="M152.66 115.188C152.452 115.188 152.253 115.15 152.053 115.073L99.5577 94.8885C98.9054 94.6352 98.4756 94.0136 98.4756 93.3152V88.9712C98.4756 88.2498 98.9284 87.6128 99.6115 87.3826L113.342 82.6165C113.518 82.5551 113.71 82.5244 113.894 82.5244C114.101 82.5244 114.301 82.5628 114.501 82.6395L169.345 103.722C169.966 103.96 170.388 104.543 170.419 105.203C170.458 105.871 170.097 106.493 169.506 106.792L153.427 114.996C153.189 115.127 152.928 115.188 152.66 115.188Z" fill="#EDEEF2"/>
<path d="M113.894 84.2208L168.738 105.303L152.66 113.508L100.164 93.3231V88.9792L113.894 84.2208ZM113.894 80.8516C113.518 80.8516 113.15 80.913 112.789 81.0358L99.059 85.8018C97.7005 86.27 96.7949 87.5517 96.7949 88.9869V93.3308C96.7949 94.7276 97.6545 95.9786 98.9592 96.4774L151.455 116.662C151.846 116.816 152.253 116.885 152.667 116.885C153.197 116.885 153.719 116.762 154.202 116.516L170.281 108.312C171.463 107.706 172.184 106.462 172.115 105.135C172.046 103.807 171.202 102.64 169.959 102.164L115.115 81.0818C114.716 80.9206 114.301 80.8516 113.894 80.8516Z" fill="#3C4242"/>
<path d="M143.173 109.856L153.718 104.813L105.636 87.0767L113.894 84.2217L168.738 105.304L152.659 113.509L143.173 109.856Z" fill="#BEBCBD"/>
<path d="M152.66 170.68C152.453 170.68 152.253 170.641 152.053 170.565L97.2093 149.482C96.557 149.229 96.1272 148.607 96.1272 147.909V93.0644C96.1272 92.5118 96.4035 91.99 96.8563 91.6753C97.1403 91.4834 97.4703 91.376 97.808 91.376C98.0152 91.376 98.2147 91.4143 98.4143 91.4911L153.258 112.574C153.911 112.827 154.341 113.449 154.341 114.147V168.991C154.341 169.544 154.064 170.066 153.611 170.38C153.327 170.58 152.997 170.68 152.66 170.68Z" fill="#BEBCBD"/>
<path d="M97.8155 93.0645L152.66 114.147V168.991L97.8155 147.909V93.0645ZM97.8155 89.6953C97.1401 89.6953 96.4801 89.8949 95.9045 90.2863C94.9912 90.9156 94.4463 91.9517 94.4463 93.0645V147.909C94.4463 149.305 95.3059 150.556 96.6029 151.055L151.447 172.138C151.838 172.291 152.245 172.361 152.66 172.361C153.335 172.361 153.995 172.161 154.571 171.77C155.484 171.14 156.029 170.104 156.029 168.991V114.147C156.029 112.75 155.169 111.499 153.865 111.001L99.0205 89.9179C98.6367 89.7721 98.2223 89.6953 97.8155 89.6953Z" fill="#3C4242"/>
<path d="M140.004 109.28L97.8154 127.278V147.908L152.66 168.998V114.146L140.004 109.28Z" fill="#821A5D"/>
<path d="M97.8151 192.553C97.4774 192.553 97.1473 192.453 96.8634 192.253C96.4029 191.939 96.1343 191.417 96.1343 190.864V136.02C96.1343 135.322 96.5641 134.7 97.2164 134.447L152.061 113.364C152.252 113.287 152.46 113.249 152.667 113.249C153.005 113.249 153.335 113.349 153.618 113.548C154.079 113.863 154.348 114.385 154.348 114.937V169.782C154.348 170.48 153.918 171.102 153.265 171.355L98.4214 192.438C98.2218 192.514 98.0223 192.553 97.8151 192.553Z" fill="#EDEEF2"/>
<path d="M152.659 114.938V169.782L97.815 190.864V136.02L152.659 114.938ZM152.659 111.568C152.252 111.568 151.838 111.645 151.447 111.791L96.6024 132.874C95.2977 133.372 94.4458 134.623 94.4458 136.02V190.864C94.4458 191.977 94.9907 193.013 95.904 193.643C96.4719 194.034 97.1397 194.234 97.815 194.234C98.2218 194.234 98.6362 194.157 99.0277 194.011L153.872 172.928C155.176 172.429 156.036 171.178 156.036 169.782V114.938C156.036 113.825 155.491 112.789 154.578 112.159C153.995 111.768 153.335 111.568 152.659 111.568Z" fill="#3C4242"/>
<path d="M143.173 118.59V161.876L97.8154 179.313V190.871L152.66 169.781V114.937L143.173 118.59Z" fill="#BEBCBD"/>
<path d="M42.9713 170.68C42.6336 170.68 42.3036 170.58 42.0196 170.38C41.5591 170.066 41.2905 169.544 41.2905 168.991V114.147C41.2905 113.449 41.7203 112.827 42.3727 112.574L97.2168 91.4911C97.4086 91.4143 97.6159 91.376 97.8231 91.376C98.1608 91.376 98.4908 91.4757 98.7748 91.6753C99.2352 91.99 99.5039 92.5118 99.5039 93.0644V147.909C99.5039 148.607 99.0741 149.229 98.4217 149.482L43.5776 170.565C43.3781 170.641 43.1785 170.68 42.9713 170.68Z" fill="#EDEEF2"/>
<path d="M97.8155 93.0645V147.909L42.9714 168.991V114.147L97.8155 93.0645ZM97.8155 89.6953C97.4087 89.6953 97.002 89.7721 96.6029 89.9179L41.7588 111.001C40.4541 111.499 39.5945 112.75 39.5945 114.147V168.991C39.5945 170.104 40.1394 171.14 41.0527 171.77C41.6206 172.161 42.2883 172.361 42.9637 172.361C43.3705 172.361 43.7849 172.284 44.1763 172.138L99.0204 151.055C100.325 150.556 101.177 149.305 101.177 147.909V93.0645C101.177 91.9517 100.632 90.9156 99.7188 90.2863C99.1586 89.8949 98.4909 89.6953 97.8155 89.6953Z" fill="#3C4242"/>
<path d="M90.0407 96.0576V142.175L42.9712 160.273V168.999L97.8153 147.909V93.0645L90.0407 96.0576Z" fill="#BEBCBD"/>
<path d="M97.8153 192.552C97.608 192.552 97.4085 192.513 97.209 192.437L42.3649 171.354C41.7125 171.101 41.2827 170.479 41.2827 169.781V114.936C41.2827 114.384 41.559 113.862 42.0118 113.547C42.2958 113.355 42.6258 113.248 42.9635 113.248C43.1707 113.248 43.3703 113.286 43.5698 113.363L98.4139 134.446C99.0663 134.699 99.4961 135.321 99.4961 136.019V190.863C99.4961 191.416 99.2198 191.938 98.7669 192.252C98.483 192.452 98.153 192.552 97.8153 192.552Z" fill="#821A5D"/>
<path d="M42.9713 114.936L97.8154 136.018V190.862L42.9713 169.78V114.936ZM42.9713 111.566C42.2959 111.566 41.6359 111.766 41.0603 112.157C40.147 112.787 39.6021 113.823 39.6021 114.936V169.78C39.6021 171.177 40.4616 172.428 41.7663 172.926L96.6104 194.009C97.0019 194.163 97.4086 194.232 97.8231 194.232C98.4984 194.232 99.1585 194.032 99.7341 193.641C100.647 193.011 101.192 191.975 101.192 190.862V136.018C101.192 134.621 100.333 133.37 99.0357 132.872L44.1916 111.789C43.7925 111.643 43.3781 111.566 42.9713 111.566Z" fill="#3C4242"/>
<path d="M89.1197 132.681V177.954L42.9712 160.21V169.781L97.8153 190.871V136.019L89.1197 132.681Z" fill="#BEBCBD"/>
<path d="M109.013 154.108C108.468 154.108 107.946 153.847 107.624 153.371L98.7746 140.408C98.5827 140.132 98.4829 139.794 98.4829 139.456V135.112C98.4829 134.414 98.9127 133.792 99.5651 133.539L152.061 113.354C152.26 113.278 152.46 113.239 152.667 113.239C153.212 113.239 153.734 113.508 154.056 113.976L165.254 130.377C165.545 130.799 165.622 131.336 165.469 131.828C165.315 132.319 164.947 132.71 164.463 132.902L109.619 153.985C109.42 154.077 109.212 154.108 109.013 154.108Z" fill="#EDEEF2"/>
<path d="M152.659 114.936L163.857 131.337L109.013 152.419L100.164 139.457V135.113L152.659 114.936ZM152.659 111.566C152.253 111.566 151.846 111.643 151.454 111.789L98.9512 131.974C97.6464 132.473 96.7869 133.724 96.7869 135.12V139.464C96.7869 140.14 96.9941 140.807 97.3701 141.36L106.219 154.323C106.864 155.267 107.915 155.796 109.005 155.796C109.412 155.796 109.819 155.72 110.21 155.574L165.054 134.491C166.014 134.123 166.758 133.332 167.065 132.35C167.372 131.367 167.211 130.301 166.635 129.449L155.438 113.048C154.801 112.096 153.749 111.566 152.659 111.566Z" fill="#3C4242"/>
<path d="M143.173 118.59L148.1 125.842L102.742 143.287L109.013 152.428L163.857 131.345L152.659 114.937L143.173 118.59Z" fill="#BEBCBD"/>
<path d="M86.6176 154.108C86.4181 154.108 86.2108 154.069 86.0113 153.993L31.1672 132.91C30.6837 132.726 30.3153 132.334 30.1618 131.835C30.0083 131.344 30.0851 130.807 30.3767 130.385L41.5742 113.984C41.8966 113.516 42.4184 113.247 42.9634 113.247C43.1629 113.247 43.3701 113.285 43.5697 113.362L96.5411 133.731C97.1935 133.984 97.6233 134.606 97.6233 135.304V138.766C97.6233 139.103 97.5235 139.433 97.3316 139.717L88.0067 153.386C87.6921 153.847 87.1625 154.108 86.6176 154.108Z" fill="#EDEEF2"/>
<path d="M42.9711 114.936L95.9426 135.305V138.766L86.6177 152.435L31.7736 131.352L42.9711 114.936ZM42.9711 111.566C41.8813 111.566 40.8299 112.096 40.1852 113.04L28.9953 129.441C28.412 130.293 28.2585 131.36 28.5655 132.342C28.8725 133.324 29.6093 134.115 30.5763 134.483L85.4204 155.566C85.8119 155.72 86.2263 155.789 86.6254 155.789C87.7152 155.789 88.7666 155.259 89.4113 154.315L98.7362 140.646C99.1199 140.086 99.3195 139.426 99.3195 138.751V135.289C99.3195 133.892 98.4599 132.641 97.1552 132.143L44.1837 111.774C43.7847 111.643 43.3779 111.566 42.9711 111.566Z" fill="#3C4242"/>
<path d="M52.4573 118.59L47.5377 125.842L92.8958 143.287L86.6178 152.428L31.7737 131.345L42.9712 114.937L52.4573 118.59Z" fill="#BEBCBD"/>
<path d="M99.9793 105.658C99.2809 105.658 98.6362 105.22 98.3906 104.537L86.2721 70.5303L15.1651 75.7108C15.1268 75.7108 15.0807 75.7185 15.0423 75.7185C11.7192 75.7185 9.00996 73.0476 8.94856 69.7321L1.6882 7.97302C1.68053 7.91162 1.67285 7.84255 1.67285 7.77348C1.67285 4.41192 4.40508 1.67969 7.76664 1.67969C7.80501 1.67969 7.83571 1.67969 7.87409 1.67969L108.107 8.0421C111.438 8.07279 114.139 10.7897 114.139 14.1282V62.8401C114.139 66.1787 111.445 68.8956 108.115 68.9263L101.66 69.3944V103.962C101.66 104.783 101.069 105.481 100.263 105.619C100.171 105.65 100.079 105.658 99.9793 105.658Z" fill="#F6F6F6"/>
<path d="M7.77433 3.36826L108.061 9.73834C110.494 9.73834 112.466 11.7108 112.466 14.1437V62.8556C112.466 65.2885 110.494 67.2609 108.061 67.2609L99.987 67.8519V103.985L87.4387 68.7652L15.05 74.0378C12.6171 74.0378 10.6447 72.0654 10.6447 69.6325L3.37666 7.78127C3.36899 5.34068 5.34142 3.36826 7.77433 3.36826ZM7.77433 -0.000976562C3.48411 -0.000976562 -0.000244141 3.49106 -0.000244141 7.78127C-0.000244141 7.91174 0.00742972 8.04221 0.0227793 8.17268L7.27546 69.8474C7.39826 74.0301 10.8366 77.3993 15.05 77.3993C15.1345 77.3993 15.2112 77.3994 15.2956 77.3917L85.1209 72.3033L96.8096 105.105C97.2932 106.464 98.5748 107.346 99.9793 107.346C100.171 107.346 100.363 107.331 100.555 107.3C102.167 107.024 103.349 105.62 103.349 103.977V70.9755L108.191 70.6225C112.413 70.5458 115.828 67.0921 115.828 62.8479V14.136C115.828 9.89184 112.405 6.4305 108.176 6.36143L7.98922 0.00669987C7.92015 -0.000974923 7.85107 -0.000976562 7.77433 -0.000976562Z" fill="#3C4242"/>
<path d="M25.6031 9.91494L13.5306 9.14746C11.374 9.14746 9.63184 10.8973 9.63184 13.0463L13.1699 43.1545" stroke="#3C4242" stroke-width="3.36939" stroke-miterlimit="10" stroke-linecap="round" stroke-linejoin="round"/>
<path d="M108.061 9.73127L101.085 9.28613V52.9327C101.085 55.3656 99.1123 57.338 96.6794 57.338L91.1305 57.7448L90.6393 57.7832L88.5978 57.929L9.93115 63.6621L10.6372 69.6254C10.6372 72.0583 12.6097 74.0307 15.0426 74.0307L87.4313 68.7581L88.6055 72.0429L99.9872 103.978V67.8448L108.061 67.2539C110.494 67.2539 112.466 65.2815 112.466 62.8485V14.1366C112.466 11.7037 110.494 9.73127 108.061 9.73127Z" fill="#821A5D"/>
<path d="M108.061 9.73106L106.043 9.60059V58.2588C106.043 60.6917 104.07 62.6641 101.637 62.6641L93.5635 63.2551V85.9494L99.9873 103.978V67.8446L108.061 67.2536C110.494 67.2536 112.467 65.2812 112.467 62.8483V14.1364C112.467 11.7035 110.494 9.73106 108.061 9.73106Z" fill="#BEBCBD"/>
<circle cx="41.1314" cy="27.9315" r="3.27326" fill="#2A2F2F"/>
<circle cx="71.6815" cy="27.9315" r="3.27326" fill="#2A2F2F"/>
<path d="M51.3875 46.6202C53.7878 41.9649 60.8581 35.4475 69.9359 46.6202" stroke="#2A2F2F" stroke-width="3.08232" stroke-linecap="round"/>
</svg>
