<svg width="51" height="55" viewBox="0 0 51 55" fill="none" xmlns="http://www.w3.org/2000/svg">
<g id="Group">
<path id="Vector" d="M43.7554 14.8738V3.77256C43.7554 2.46692 43.0789 1.27319 41.9457 0.579259C40.8126 -0.114649 39.417 -0.189586 38.2125 0.378564L21.6059 8.21274L21.6235 8.24838H6.54331C2.93528 8.24838 0 11.0817 0 14.5643V30.2621C0 33.6231 2.70655 36.3809 6.11594 36.5954C6.14418 36.7467 6.17635 36.8973 6.21726 37.0462C6.22774 37.0843 6.2405 37.1218 6.2555 37.1585L12.2624 51.8929C12.2655 51.9007 12.2688 51.9084 12.2722 51.916C13.1496 53.9228 14.6081 55.0001 16.3775 55C16.7784 55 17.1955 54.9447 17.625 54.8324L17.8684 54.7686C20.3938 54.1082 21.5342 52.2084 20.9974 49.5563C20.9966 49.552 20.9957 49.5478 20.9948 49.5435L18.2004 36.6104H21.6013L21.5988 36.6156L38.2134 44.4482C38.7497 44.7011 39.3238 44.8265 39.8957 44.8265C40.6083 44.8265 41.3177 44.6319 41.946 44.2471C43.0791 43.5532 43.7554 42.3595 43.7554 41.0539V29.9651C47.7939 29.7101 51 26.4243 51 22.4194C51 18.4146 47.7939 15.1287 43.7554 14.8738ZM18.9599 49.9554C19.2811 51.5506 18.7785 52.4308 17.3301 52.8095L17.0867 52.8734C16.265 53.0883 15.0714 53.1406 14.1882 51.131L8.26857 36.6105H16.0765L18.9599 49.9554ZM21.0581 34.5822H6.54331C4.0812 34.5822 2.0781 32.6442 2.0781 30.2622V14.5643C2.0781 12.2001 4.08123 10.2767 6.54331 10.2767H21.0581V34.5822ZM22.0971 35.6085V35.5963H22.1032L22.0971 35.6085ZM22.0971 9.26253V9.20464L22.1258 9.26253H22.0971ZM41.6774 41.0539C41.6774 41.6661 41.3727 42.2036 40.8415 42.529C40.3106 42.8543 39.6821 42.8882 39.1173 42.6219L23.1362 35.0879V9.74375L39.1169 2.20481C39.6814 1.93817 40.3101 1.97208 40.8414 2.29746C41.3726 2.62276 41.6774 3.16041 41.6774 3.77256V41.0539ZM43.7554 27.9315V16.9073C46.6468 17.1576 48.9219 19.5335 48.9219 22.4194C48.9219 25.3053 46.6468 27.6812 43.7554 27.9315ZM4.71619 13.5445C4.71619 14.1046 5.18137 14.5586 5.75524 14.5586H11.7875C12.3614 14.5586 12.8266 14.1046 12.8266 13.5445C12.8266 12.9843 12.3614 12.5303 11.7875 12.5303H5.75524C5.18137 12.5303 4.71619 12.9843 4.71619 13.5445Z" fill="#821A5D"/>
</g>
</svg>
