<svg width="61" height="41" viewBox="0 0 61 41" fill="none" xmlns="http://www.w3.org/2000/svg">
<g id="Group">
<path id="Vector" d="M30.8589 40.8123C30.176 40.8123 29.4952 40.6436 28.8927 40.3122L27.5591 39.5912C27.4432 39.5283 27.3408 39.4432 27.2578 39.3407C27.1748 39.2382 27.1128 39.1204 27.0753 38.994C27.0378 38.8675 27.0256 38.7349 27.0393 38.6038C27.0531 38.4726 27.0926 38.3455 27.1555 38.2295C27.2184 38.1136 27.3035 38.0112 27.4059 37.9282C27.5084 37.8452 27.6262 37.7832 27.7527 37.7457C27.8791 37.7082 28.0117 37.696 28.1429 37.7097C28.274 37.7235 28.4012 37.763 28.5171 37.8259L29.8547 38.5489C30.3287 38.8079 30.9231 38.8722 31.4453 38.7196C31.6457 38.6665 31.8335 38.5742 31.998 38.4481C32.1624 38.3219 32.3002 38.1643 32.4033 37.9845C32.7729 37.3097 32.6403 36.4943 32.2989 36.0967C32.1372 35.9077 32.0514 35.6655 32.0581 35.4169C32.0648 35.1683 32.1635 34.9311 32.335 34.7511C32.6463 34.4277 33.1725 34.3032 33.5682 34.5121L36.5325 36.0645C37.4403 36.5586 38.573 36.2674 39.0269 35.4359C39.3804 34.7872 39.1956 33.9718 38.9104 33.5601L36.167 31.6521C35.9564 31.5048 35.8101 31.2827 35.7578 31.0311C35.7056 30.7795 35.7514 30.5175 35.8858 30.2985C36.0202 30.0791 36.234 29.92 36.4828 29.8541C36.7315 29.7883 36.996 29.8209 37.2214 29.945L42.4411 32.7969C42.6265 32.9006 42.8311 32.9656 43.0423 32.988C43.2536 33.0104 43.4672 32.9898 43.6702 32.9275C44.1442 32.7821 44.5413 32.455 44.7748 32.0177C45.2568 31.138 45.0018 30.17 44.1723 29.7161L40.8425 27.5511C40.6275 27.4114 40.4741 27.1948 40.4136 26.9457C40.3532 26.6965 40.3904 26.4337 40.5175 26.2111C40.6446 25.9885 40.852 25.8229 41.0973 25.7483C41.3425 25.6737 41.607 25.6957 41.8366 25.8098L48.6229 29.1778C49.4844 29.6458 50.5087 29.3064 50.9967 28.4187C51.2144 27.9951 51.2585 27.5035 51.1198 27.048C50.9811 26.5925 50.6704 26.2089 50.2537 25.9785C50.1344 25.9174 50.0286 25.8331 49.9424 25.7305C49.8562 25.6278 49.7915 25.509 49.752 25.381C49.7125 25.2529 49.6989 25.1183 49.7123 24.985C49.7256 24.8516 49.7655 24.7223 49.8295 24.6046C49.8936 24.4869 49.9806 24.3833 50.0853 24.2997C50.1901 24.2162 50.3105 24.1544 50.4395 24.1181C50.5685 24.0818 50.7034 24.0717 50.8364 24.0884C50.9693 24.1051 51.0976 24.1482 51.2136 24.2152C53.0332 25.2073 53.7402 27.5732 52.7601 29.3807C51.7318 31.2565 49.5126 31.9514 47.697 30.9593L46.9901 30.6098C47.0995 31.4287 46.9403 32.261 46.5362 32.9817C46.0464 33.8856 45.219 34.5592 44.2346 34.8555C43.7779 34.9908 43.2989 35.0344 42.8253 34.9837C42.3517 34.933 41.8928 34.7891 41.4751 34.5603L41.214 34.4197C41.2522 35.0764 41.1297 35.7653 40.7842 36.3979C39.8081 38.1833 37.4282 38.8441 35.5805 37.8339L34.6205 37.3318C34.5899 37.8971 34.4342 38.4486 34.1646 38.9465C33.9356 39.3584 33.6273 39.7207 33.2574 40.0127C32.8875 40.3047 32.4634 40.5205 32.0097 40.6476C31.6359 40.7572 31.2484 40.8126 30.8589 40.8123ZM10.0864 22.5984C9.92927 22.5986 9.77438 22.5615 9.63449 22.49L6.29659 20.807C6.17867 20.7479 6.07359 20.6662 5.9874 20.5664C5.9012 20.4666 5.83559 20.3507 5.79434 20.2255C5.75309 20.1003 5.73701 19.9681 5.74703 19.8366C5.75706 19.7051 5.79298 19.5769 5.85274 19.4594C5.91136 19.3411 5.9929 19.2356 6.09263 19.1491C6.19237 19.0626 6.3083 18.9968 6.43369 18.9555C6.55908 18.9142 6.69143 18.8982 6.82304 18.9085C6.95466 18.9188 7.08291 18.9552 7.20035 19.0155L10.5383 20.6985C10.7431 20.7979 10.9079 20.9642 11.0054 21.1698C11.1029 21.3755 11.1274 21.6083 11.0747 21.8298C11.0221 22.0513 10.8954 22.2482 10.7157 22.3879C10.536 22.5277 10.314 22.6019 10.0864 22.5984ZM18.1038 9.51595C18.0376 9.51613 17.9717 9.5094 17.9069 9.49587L11.0906 8.14826C10.5463 8.03981 10.1928 7.51362 10.3013 6.96935C10.4097 6.42508 10.9379 6.06358 11.4802 6.18006L18.2966 7.52767C18.5441 7.57239 18.7658 7.70859 18.9176 7.90921C19.0694 8.10984 19.1402 8.36021 19.1159 8.61061C19.0916 8.86102 18.9741 9.09313 18.7866 9.26085C18.599 9.42857 18.3553 9.51963 18.1038 9.51595Z" fill="#821A5D"/>
<path id="Vector_2" d="M50.7076 26.0892C50.539 26.0892 50.3731 26.0463 50.2256 25.9647L43.6442 22.3637L34.6728 16.7965C34.5605 16.7274 34.4628 16.6369 34.3855 16.53C34.3081 16.4232 34.2525 16.3022 34.222 16.1738C34.1914 16.0455 34.1864 15.9125 34.2072 15.7822C34.228 15.652 34.2743 15.5271 34.3434 15.4148C34.4125 15.3024 34.5031 15.2048 34.6099 15.1274C34.7168 15.05 34.8378 14.9945 34.9661 14.9639C35.0944 14.9333 35.2275 14.9283 35.3577 14.9491C35.488 14.97 35.6128 15.0163 35.7252 15.0854L44.6524 20.6285L50.1613 23.641C50.5068 22.438 50.4806 21.5523 50.4786 21.5423C50.4692 21.3404 50.5209 21.1404 50.627 20.9685C50.7331 20.7965 50.8885 20.6605 51.0731 20.5783L53.1498 19.6544C53.2703 19.6009 53.4002 19.5716 53.532 19.5683C53.6639 19.5649 53.7951 19.5876 53.9182 19.6349C54.0413 19.6823 54.1538 19.7535 54.2494 19.8443C54.345 19.9352 54.4217 20.044 54.4753 20.1645C54.5288 20.2851 54.5581 20.415 54.5614 20.5468C54.5648 20.6786 54.5421 20.8099 54.4947 20.9329C54.4474 21.056 54.3762 21.1686 54.2854 21.2642C54.1945 21.3598 54.0857 21.4365 53.9652 21.4901L52.4629 22.1588C52.3685 23.3055 52.0869 24.429 51.6294 25.4847C51.5515 25.6644 51.4227 25.8173 51.2589 25.9248C51.0951 26.0322 50.9035 26.0893 50.7076 26.0892Z" fill="#821A5D"/>
<path id="Vector_3" d="M22.3356 20.733C20.9237 20.733 19.562 20.1184 18.4494 18.9676C18.3242 18.8377 18.2361 18.6765 18.1944 18.501C18.1527 18.3254 18.1589 18.1418 18.2124 17.9695C18.5538 16.8709 18.9233 15.8446 19.2648 14.8947C19.8151 13.3603 20.2931 12.0368 20.4356 11.0145C20.4551 10.8747 20.5037 10.7406 20.5785 10.6208C20.6532 10.5011 20.7524 10.3985 20.8695 10.3196L21.8997 9.6167C24.2234 8.01805 28.1136 5.33889 30.2284 4.46726C31.4937 3.94709 38.1816 5.23646 43.568 6.41336C43.7104 6.44353 43.8443 6.5053 43.9596 6.59412C44.1886 6.76684 44.3994 6.94558 44.5983 7.12834L48.4483 6.06793C48.5754 6.03285 48.7082 6.02315 48.8391 6.03939C48.97 6.05563 49.0964 6.09749 49.211 6.16258C49.3257 6.22767 49.4265 6.3147 49.5075 6.41873C49.5886 6.52275 49.6484 6.64172 49.6835 6.76884C49.7185 6.89597 49.7282 7.02876 49.712 7.15963C49.6957 7.2905 49.6539 7.41689 49.5888 7.53158C49.5237 7.64628 49.4367 7.74703 49.3326 7.82808C49.2286 7.90914 49.1097 7.96891 48.9825 8.00399L44.5822 9.21704C44.41 9.2652 44.2279 9.26619 44.0551 9.2199C43.8824 9.17362 43.7252 9.08177 43.6001 8.95395C43.3832 8.73299 43.1546 8.52382 42.9153 8.32734C37.7096 7.19663 31.8652 6.16433 30.9293 6.34508C29.0756 7.11428 25.1473 9.81955 23.0365 11.2716L22.3476 11.7416C22.1287 12.8622 21.6728 14.1315 21.1546 15.5755C20.8855 16.3246 20.5983 17.122 20.3212 17.9655C21.2229 18.6925 22.0905 18.7728 22.683 18.7046C23.5687 18.5981 24.3921 18.0619 24.832 17.3087C25.1774 16.7143 25.6433 15.5313 25.9627 14.4308C26.0172 14.2435 26.125 14.0762 26.273 13.9492C26.421 13.8223 26.6028 13.7412 26.7961 13.7158C27.4107 13.6334 29.8549 13.1173 31.3009 12.7739C31.4292 12.7434 31.5623 12.7385 31.6925 12.7595C31.8227 12.7804 31.9475 12.8268 32.0597 12.896C32.172 12.9652 32.2695 13.0558 32.3468 13.1627C32.424 13.2696 32.4795 13.3906 32.5099 13.519C32.5404 13.6473 32.5453 13.7803 32.5243 13.9105C32.5034 14.0407 32.457 14.1655 32.3878 14.2778C32.3186 14.3901 32.228 14.4876 32.1211 14.5648C32.0142 14.6421 31.8931 14.6975 31.7648 14.728C30.6663 14.9891 28.7945 15.3968 27.7059 15.5996C27.4127 16.5034 26.993 17.5919 26.5692 18.3189C26.1343 19.0547 25.5151 19.6644 24.7727 20.0877C24.0302 20.5111 23.1902 20.7335 22.3356 20.733ZM25.4425 40.6801C24.5508 40.6801 23.7153 40.3326 23.0887 39.704L22.434 39.0433C22.127 38.7341 21.8842 38.3674 21.7194 37.9642C21.5547 37.5609 21.4713 37.1291 21.474 36.6935C21.476 35.8038 21.8234 34.9723 22.452 34.3497L23.7756 33.0483C25.0288 31.8071 27.2279 31.8172 28.4691 33.0744L29.1198 33.7271C30.4092 35.0326 30.3991 37.1393 29.1017 38.4247L27.7782 39.7261C27.1556 40.3386 26.3262 40.6801 25.4425 40.6801ZM26.1113 34.0987C25.7655 34.0972 25.4332 34.233 25.1874 34.4762L23.8659 35.7756C23.7448 35.8967 23.6488 36.0404 23.5833 36.1985C23.5178 36.3567 23.4842 36.5263 23.4843 36.6975C23.4843 37.051 23.6169 37.3803 23.8619 37.6274L24.5146 38.2861C24.7647 38.5234 25.096 38.656 25.4407 38.6567C25.7854 38.6575 26.1173 38.5263 26.3684 38.2901L27.6899 36.9907C27.9353 36.7448 28.0733 36.4117 28.0737 36.0643C28.074 35.7168 27.9368 35.3834 27.6919 35.137L27.0432 34.4863C26.9217 34.3625 26.7767 34.2644 26.6166 34.1978C26.4565 34.1312 26.2847 34.0975 26.1113 34.0987ZM11.5547 28.6419C10.6629 28.6419 9.82546 28.2945 9.19885 27.6639L8.54613 27.0071C7.92722 26.3813 7.5816 25.5358 7.58499 24.6556C7.58837 23.7755 7.9405 22.9326 8.56421 22.3116L9.88772 21.0102C11.1409 19.771 13.3361 19.777 14.5793 21.0322L15.232 21.691C15.8546 22.3196 16.194 23.1531 16.19 24.0428C16.1892 24.4785 16.1022 24.9097 15.934 25.3116C15.7658 25.7135 15.5197 26.0782 15.2099 26.3845L13.8884 27.6839C13.5815 27.9893 13.2175 28.2311 12.817 28.3955C12.4165 28.5599 11.9876 28.6437 11.5547 28.6419ZM12.2234 22.0605C11.8771 22.0594 11.5444 22.1951 11.2976 22.4381L9.97609 23.7375C9.73088 23.9834 9.59284 24.3163 9.59209 24.6635C9.59134 25.0108 9.72793 25.3443 9.97207 25.5912L10.6228 26.246C10.8718 26.4847 11.2031 26.6186 11.548 26.6201C11.893 26.6216 12.2254 26.4905 12.4765 26.254L13.8 24.9526C14.045 24.7116 14.1796 24.3842 14.1816 24.0327C14.1836 23.6813 14.0511 23.3519 13.806 23.1049L13.1533 22.4461C13.032 22.3229 12.8872 22.2252 12.7275 22.159C12.5678 22.0928 12.3964 22.0593 12.2234 22.0605Z" fill="#821A5D"/>
<path id="Vector_4" d="M15.005 33.8913C14.1113 33.8913 13.2738 33.5438 12.6492 32.9092L11.9965 32.2525C11.6891 31.9448 11.4458 31.5793 11.2807 31.177C11.1155 30.7747 11.0319 30.3436 11.0345 29.9087C11.0343 29.4718 11.121 29.0392 11.2896 28.6361C11.4582 28.2331 11.7053 27.8676 12.0166 27.5609L14.6455 24.9521C15.9007 23.7069 18.0919 23.7169 19.3391 24.9721L19.9918 25.6329C20.6144 26.2595 20.9538 27.093 20.9498 27.9807C20.9498 28.417 20.8629 28.8489 20.6943 29.2513C20.5257 29.6537 20.2787 30.0185 19.9677 30.3244L17.3407 32.9293C16.7182 33.5499 15.8867 33.8913 15.005 33.8913ZM16.9812 26.0004C16.8102 25.9992 16.6407 26.0319 16.4825 26.0967C16.3242 26.1616 16.1804 26.2572 16.0594 26.378L13.4305 28.9869C13.308 29.1075 13.2107 29.2511 13.1439 29.4094C13.0771 29.5678 13.0422 29.7378 13.0413 29.9096C13.0404 30.0815 13.0734 30.2518 13.1384 30.4109C13.2035 30.57 13.2993 30.7146 13.4204 30.8366L14.0751 31.4953C14.3241 31.7334 14.6549 31.867 14.9994 31.8685C15.3439 31.87 15.6758 31.7393 15.9269 31.5033L18.5558 28.8965C18.6787 28.7757 18.7761 28.6316 18.8423 28.4726C18.9086 28.3136 18.9422 28.1429 18.9414 27.9706C18.9436 27.7994 18.9115 27.6294 18.847 27.4707C18.7825 27.3121 18.6869 27.1679 18.5658 27.0468L17.9131 26.386C17.7909 26.2634 17.6457 26.1663 17.4857 26.1001C17.3258 26.0339 17.1543 26 16.9812 26.0004Z" fill="#821A5D"/>
<path id="Vector_5" d="M20.2247 37.2858C19.7861 37.2873 19.3516 37.2013 18.9467 37.0326C18.5418 36.864 18.1747 36.6162 17.8668 36.3037L17.2161 35.645C16.9088 35.3369 16.6655 34.971 16.5004 34.5684C16.3353 34.1657 16.2516 33.7344 16.2541 33.2992C16.2561 32.4095 16.6036 31.578 17.2322 30.9554L19.2104 29.0013C20.4657 27.7581 22.6608 27.7682 23.904 29.0254L24.5547 29.6821C25.84 30.9795 25.83 33.0843 24.5366 34.3737L22.5604 36.3278C21.9378 36.9444 21.1083 37.2858 20.2247 37.2858ZM21.5462 30.0497C21.3752 30.0489 21.2058 30.0818 21.0476 30.1466C20.8894 30.2114 20.7456 30.3068 20.6243 30.4272L18.6461 32.3814C18.3991 32.6264 18.2645 32.9538 18.2625 33.3052C18.2605 33.6567 18.395 33.9841 18.6401 34.2291L19.2948 34.8898C19.5435 35.1282 19.8741 35.2622 20.2186 35.264C20.5631 35.2659 20.8952 35.1356 21.1465 34.8999L23.1227 32.9457C23.3682 32.7001 23.5066 32.3674 23.5077 32.0201C23.5089 31.6729 23.3726 31.3392 23.1288 31.092L22.478 30.4353C22.3564 30.312 22.2112 30.2143 22.0512 30.1481C21.8911 30.0818 21.7194 30.0484 21.5462 30.0497ZM54.8187 24.9565C54.6108 24.9561 54.4081 24.8911 54.2387 24.7706C54.0693 24.6501 53.9414 24.4799 53.8728 24.2837L47.3898 5.76454C47.3046 5.52052 47.3167 5.25303 47.4237 5.01773C47.5307 4.78243 47.7243 4.59745 47.9642 4.50128L58.8736 0.12907C59.1194 0.0364101 59.3918 0.043776 59.6323 0.149588C59.8727 0.255401 60.0621 0.451232 60.1599 0.695081C60.2576 0.938929 60.2559 1.21137 60.1551 1.45398C60.0543 1.69659 59.8625 1.89003 59.6207 1.99283L49.601 6.00755L55.4253 22.6489L59.0745 21.2731C59.1979 21.2267 59.3293 21.2051 59.4611 21.2094C59.5928 21.2138 59.7225 21.244 59.8426 21.2985C59.9627 21.3529 60.0709 21.4305 60.161 21.5268C60.2511 21.6231 60.3214 21.7361 60.3678 21.8596C60.4143 21.983 60.4359 22.1144 60.4316 22.2462C60.4272 22.378 60.3969 22.5076 60.3425 22.6277C60.288 22.7478 60.2105 22.856 60.1142 22.9461C60.0179 23.0363 59.9048 23.1065 59.7814 23.153L55.1702 24.8902C55.0583 24.9343 54.939 24.9568 54.8187 24.9565ZM4.9872 24.8922C4.87861 24.8925 4.77071 24.8749 4.66787 24.84L0.697338 23.5104C0.570719 23.4698 0.453432 23.4044 0.352284 23.3181C0.251135 23.2318 0.168141 23.1262 0.108117 23.0076C0.0480932 22.8889 0.0122356 22.7595 0.00262567 22.6269C-0.00698432 22.4942 0.00984457 22.361 0.0521356 22.2349C0.0944267 22.1089 0.161337 21.9924 0.248985 21.8924C0.336632 21.7924 0.44327 21.7108 0.562708 21.6524C0.682147 21.5939 0.812009 21.5597 0.944755 21.5519C1.0775 21.544 1.21049 21.5626 1.336 21.6065L4.36662 22.6207L10.211 5.92722L0.755581 1.94262C0.629589 1.89464 0.514549 1.82179 0.417319 1.72839C0.320089 1.635 0.24266 1.52299 0.18965 1.39903C0.136639 1.27507 0.109132 1.14171 0.108768 1.00689C0.108404 0.872075 0.135191 0.738564 0.187532 0.614322C0.239873 0.490079 0.316696 0.377649 0.413421 0.283734C0.510145 0.189818 0.624791 0.116341 0.750521 0.0676832C0.876252 0.0190255 1.01049 -0.00381625 1.14524 0.000519463C1.27999 0.00485518 1.41248 0.0362797 1.53483 0.0929195L11.8578 4.44504C12.0931 4.54458 12.2817 4.72987 12.3854 4.96335C12.4891 5.19682 12.5001 5.461 12.4161 5.70228L5.93314 24.2214C5.86445 24.4175 5.73652 24.5873 5.56705 24.7075C5.39758 24.8277 5.19496 24.8922 4.9872 24.8922Z" fill="#821A5D"/>
</g>
</svg>
