<svg width="32" height="32" viewBox="0 0 32 32" fill="none" xmlns="http://www.w3.org/2000/svg">
<g id="search-02">
<path id="Vector" d="M18.6666 18.6665L22 21.9998" stroke="black" stroke-width="1.5" stroke-linejoin="round"/>
<path id="Vector_2" d="M21.9111 24.7004C21.1408 23.9301 21.1408 22.6813 21.9111 21.9112C22.6812 21.1409 23.93 21.1409 24.7003 21.9112L28.7556 25.9665C29.5259 26.7368 29.5259 27.9856 28.7556 28.7557C27.9855 29.526 26.7367 29.526 25.9664 28.7557L21.9111 24.7004Z" stroke="black" stroke-width="1.5" stroke-linecap="round"/>
<path id="Vector_3" d="M21.3333 11.9998C21.3333 6.84518 17.1546 2.6665 12 2.6665C6.84531 2.6665 2.66663 6.84518 2.66663 11.9998C2.66663 17.1545 6.84531 21.3332 12 21.3332C17.1546 21.3332 21.3333 17.1545 21.3333 11.9998Z" stroke="black" stroke-width="1.5" stroke-linejoin="round"/>
</g>
</svg>
