<svg width="32" height="32" viewBox="0 0 32 32" fill="none" xmlns="http://www.w3.org/2000/svg">
<g id="facebook-01">
<g id="Subtract">
<path fill-rule="evenodd" clip-rule="evenodd" d="M5.18824 5.18799C3.33325 7.04299 3.33325 10.0286 3.33325 15.9997C3.33325 21.9707 3.33325 24.9563 5.18824 26.8114C7.04324 28.6663 10.0288 28.6663 15.9999 28.6663H15.9999H15.9999C21.971 28.6663 24.9566 28.6663 26.8117 26.8114C28.6666 24.9563 28.6666 21.9707 28.6666 15.9997V15.9997V15.9997C28.6666 10.0285 28.6666 7.04299 26.8117 5.18799C24.9566 3.33301 21.971 3.33301 15.9999 3.33301C10.0288 3.33301 7.04324 3.33301 5.18824 5.18799ZM10.1666 15.537C10.1666 14.771 10.3367 14.6111 11.1515 14.6111H13.1211V12.2963C13.1211 9.73943 15.3258 7.66667 18.0454 7.66667H20.8484C21.6632 7.66667 21.8333 7.82654 21.8333 8.59259V10.4444C21.8333 11.2105 21.6632 11.3704 20.8484 11.3704H18.0454C17.5014 11.3704 17.0605 11.7849 17.0605 12.2963V14.6111H19.6943C20.7529 14.6111 20.932 14.8345 20.6413 15.7914L20.2192 17.1803C20.0494 17.7389 19.8902 17.8518 19.2722 17.8518H17.0605V23.4074C17.0605 24.1734 16.8905 24.3333 16.0757 24.3333H14.106C13.2912 24.3333 13.1211 24.1734 13.1211 23.4074V17.8518H11.1515C10.3367 17.8518 10.1666 17.692 10.1666 16.9259V15.537Z" fill="#821A5D"/>
<path d="M5.18824 5.18799L4.65791 4.65766L4.65791 4.65767L5.18824 5.18799ZM5.18824 26.8114L4.6579 27.3417L4.65792 27.3417L5.18824 26.8114ZM26.8117 26.8114L27.342 27.3418L27.342 27.3417L26.8117 26.8114ZM26.8117 5.18799L27.342 4.65767L27.342 4.65765L26.8117 5.18799ZM13.1211 14.6111V15.3611C13.5354 15.3611 13.8711 15.0253 13.8711 14.6111H13.1211ZM17.0605 14.6111H16.3105C16.3105 15.0253 16.6463 15.3611 17.0605 15.3611V14.6111ZM20.6413 15.7914L21.3589 16.0095L21.3589 16.0095L20.6413 15.7914ZM20.2192 17.1803L20.9368 17.3984L20.2192 17.1803ZM17.0605 17.8518V17.1018C16.6463 17.1018 16.3105 17.4376 16.3105 17.8518H17.0605ZM13.1211 17.8518H13.8711C13.8711 17.4376 13.5354 17.1018 13.1211 17.1018V17.8518ZM4.08325 15.9997C4.08325 12.9929 4.08484 10.8133 4.30844 9.15023C4.52913 7.50874 4.95365 6.48325 5.71857 5.71832L4.65791 4.65767C3.56784 5.74774 3.06487 7.14253 2.82181 8.95035C2.58166 10.7366 2.58325 13.0353 2.58325 15.9997H4.08325ZM5.71858 26.2811C4.95365 25.5161 4.52913 24.4906 4.30844 22.8491C4.08484 21.186 4.08325 19.0064 4.08325 15.9997H2.58325C2.58325 18.964 2.58166 21.2627 2.82181 23.049C3.06487 24.8568 3.56784 26.2516 4.6579 27.3417L5.71858 26.2811ZM15.9999 27.9163C12.9931 27.9163 10.8135 27.9147 9.15046 27.6912C7.50897 27.4705 6.48348 27.046 5.71856 26.2811L4.65792 27.3417C5.74799 28.4318 7.14278 28.9347 8.9506 29.1778C10.7368 29.4179 13.0355 29.4163 15.9999 29.4163V27.9163ZM15.9999 27.9163H15.9999V29.4163H15.9999V27.9163ZM15.9999 27.9163H15.9999V29.4163H15.9999V27.9163ZM26.2813 26.2811C25.5164 27.046 24.4909 27.4705 22.8494 27.6912C21.1863 27.9147 19.0067 27.9163 15.9999 27.9163V29.4163C18.9643 29.4163 21.263 29.4179 23.0492 29.1778C24.857 28.9347 26.2519 28.4318 27.342 27.3418L26.2813 26.2811ZM27.9166 15.9997C27.9166 19.0064 27.915 21.186 27.6914 22.8491C27.4707 24.4906 27.0462 25.5161 26.2813 26.2811L27.342 27.3417C28.432 26.2516 28.935 24.8568 29.178 23.049C29.4182 21.2627 29.4166 18.964 29.4166 15.9997H27.9166ZM27.9166 15.9997V15.9997H29.4166V15.9997H27.9166ZM27.9166 15.9997V15.9997H29.4166V15.9997H27.9166ZM26.2813 5.71832C27.0462 6.48324 27.4707 7.50873 27.6914 9.15022C27.915 10.8133 27.9166 12.9929 27.9166 15.9997H29.4166C29.4166 13.0353 29.4182 10.7366 29.178 8.95035C28.935 7.14254 28.432 5.74775 27.342 4.65767L26.2813 5.71832ZM15.9999 4.08301C19.0067 4.08301 21.1863 4.0846 22.8494 4.30819C24.4909 4.52889 25.5164 4.95341 26.2813 5.71834L27.342 4.65765C26.2519 3.56759 24.8571 3.06462 23.0492 2.82157C21.263 2.58142 18.9643 2.58301 15.9999 2.58301V4.08301ZM5.71857 5.71833C6.48349 4.95341 7.50898 4.52889 9.15047 4.30819C10.8135 4.0846 12.9932 4.08301 15.9999 4.08301V2.58301C13.0356 2.58301 10.7368 2.58141 8.9506 2.82157C7.14278 3.06462 5.74799 3.56759 4.65791 4.65766L5.71857 5.71833ZM11.1515 13.8611C10.9326 13.8611 10.7084 13.8709 10.5021 13.9135C10.2898 13.9574 10.0467 14.0458 9.83974 14.2404C9.43283 14.623 9.41661 15.1806 9.41661 15.537H10.9166C10.9166 15.3629 10.9274 15.2778 10.9362 15.2398C10.9425 15.213 10.9337 15.2707 10.8672 15.3332C10.8047 15.392 10.7568 15.3926 10.8055 15.3825C10.8603 15.3712 10.9629 15.3611 11.1515 15.3611V13.8611ZM13.1211 13.8611H11.1515V15.3611H13.1211V13.8611ZM12.3711 12.2963V14.6111H13.8711V12.2963H12.3711ZM18.0454 6.91667C14.9558 6.91667 12.3711 9.2823 12.3711 12.2963H13.8711C13.8711 10.1965 15.6957 8.41667 18.0454 8.41667V6.91667ZM20.8484 6.91667H18.0454V8.41667H20.8484V6.91667ZM22.5833 8.59259C22.5833 8.23619 22.567 7.67851 22.1601 7.29593C21.9532 7.10139 21.71 7.01297 21.4977 6.96912C21.2915 6.92652 21.0673 6.91667 20.8484 6.91667V8.41667C21.037 8.41667 21.1396 8.4268 21.1943 8.43811C21.2431 8.44818 21.1952 8.4476 21.1327 8.38879C21.0662 8.32631 21.0574 8.26859 21.0636 8.2954C21.0725 8.33335 21.0833 8.41848 21.0833 8.59259H22.5833ZM22.5833 10.4444V8.59259H21.0833V10.4444H22.5833ZM20.8484 12.1204C21.0673 12.1204 21.2915 12.1105 21.4977 12.0679C21.71 12.0241 21.9532 11.9356 22.1601 11.7411C22.567 11.3585 22.5833 10.8008 22.5833 10.4444H21.0833C21.0833 10.6186 21.0725 10.7037 21.0636 10.7416C21.0574 10.7684 21.0662 10.7107 21.1327 10.6482C21.1952 10.5894 21.2431 10.5889 21.1943 10.5989C21.1396 10.6102 21.037 10.6204 20.8484 10.6204V12.1204ZM18.0454 12.1204H20.8484V10.6204H18.0454V12.1204ZM17.8105 12.2963C17.8105 12.2632 17.8234 12.2249 17.8627 12.188C17.9028 12.1503 17.9656 12.1204 18.0454 12.1204V10.6204C17.1315 10.6204 16.3105 11.3278 16.3105 12.2963H17.8105ZM17.8105 14.6111V12.2963H16.3105V14.6111H17.8105ZM19.6943 13.8611H17.0605V15.3611H19.6943V13.8611ZM21.3589 16.0095C21.4364 15.7542 21.5018 15.4896 21.5139 15.2397C21.5264 14.9822 21.486 14.6563 21.2588 14.3731C21.0377 14.0975 20.7355 13.983 20.4928 13.9289C20.2498 13.8747 19.974 13.8611 19.6943 13.8611V15.3611C19.9438 15.3611 20.0874 15.3754 20.1666 15.393C20.2462 15.4107 20.1691 15.4118 20.0888 15.3117C20.0023 15.204 20.0183 15.1133 20.0157 15.1669C20.0145 15.1925 20.0093 15.2378 19.994 15.3093C19.9789 15.38 19.9561 15.4667 19.9237 15.5734L21.3589 16.0095ZM20.9368 17.3984L21.3589 16.0095L19.9237 15.5733L19.5016 16.9623L20.9368 17.3984ZM19.2722 18.6018C19.5792 18.6018 19.9964 18.5864 20.3476 18.3374C20.7102 18.0803 20.8496 17.6855 20.9368 17.3984L19.5016 16.9623C19.4645 17.0844 19.4401 17.1397 19.4276 17.1627C19.4198 17.177 19.4344 17.1461 19.48 17.1137C19.5236 17.0828 19.5511 17.0823 19.5207 17.088C19.4832 17.0949 19.4108 17.1018 19.2722 17.1018V18.6018ZM17.0605 18.6018H19.2722V17.1018H17.0605V18.6018ZM17.8105 23.4074V17.8518H16.3105V23.4074H17.8105ZM16.0757 25.0833C16.2946 25.0833 16.5188 25.0735 16.725 25.0309C16.9373 24.987 17.1805 24.8986 17.3874 24.704C17.7943 24.3214 17.8105 23.7638 17.8105 23.4074H16.3105C16.3105 23.5815 16.2998 23.6667 16.2909 23.7046C16.2846 23.7314 16.2935 23.6737 16.3599 23.6112C16.4225 23.5524 16.4704 23.5518 16.4216 23.5619C16.3668 23.5732 16.2642 23.5833 16.0757 23.5833V25.0833ZM14.106 25.0833H16.0757V23.5833H14.106V25.0833ZM12.3711 23.4074C12.3711 23.7638 12.3874 24.3215 12.7943 24.704C13.0012 24.8986 13.2444 24.987 13.4567 25.0309C13.6629 25.0735 13.8871 25.0833 14.106 25.0833V23.5833C13.9175 23.5833 13.8149 23.5732 13.7601 23.5619C13.7113 23.5518 13.7592 23.5524 13.8218 23.6112C13.8882 23.6737 13.897 23.7314 13.8908 23.7046C13.8819 23.6666 13.8711 23.5815 13.8711 23.4074H12.3711ZM12.3711 17.8518V23.4074H13.8711V17.8518H12.3711ZM11.1515 18.6018H13.1211V17.1018H11.1515V18.6018ZM9.41661 16.9259C9.41661 17.2823 9.43282 17.84 9.83976 18.2226C10.0467 18.4171 10.2899 18.5056 10.5021 18.5494C10.7084 18.592 10.9326 18.6018 11.1515 18.6018V17.1018C10.9629 17.1018 10.8603 17.0917 10.8055 17.0804C10.7567 17.0703 10.8046 17.0709 10.8672 17.1297C10.9337 17.1922 10.9425 17.2499 10.9362 17.2231C10.9274 17.1852 10.9166 17.1 10.9166 16.9259H9.41661ZM9.41661 15.537V16.9259H10.9166V15.537H9.41661Z" fill="#821A5D"/>
</g>
</g>
</svg>
