<svg width="32" height="33" viewBox="0 0 32 33" fill="none" xmlns="http://www.w3.org/2000/svg">
<g id="instagram">
<g id="Subtract">
<path fill-rule="evenodd" clip-rule="evenodd" d="M3.33325 16.0235C3.33325 10.0449 3.33325 7.05551 5.18824 5.19816C7.04324 3.34082 10.0288 3.34082 15.9999 3.34082C21.971 3.34082 24.9566 3.34082 26.8117 5.19816C28.6666 7.05551 28.6666 10.0448 28.6666 16.0235V16.0235V16.0236C28.6666 22.0022 28.6666 24.9916 26.8117 26.849C24.9566 28.7063 21.971 28.7063 15.9999 28.7063H15.9999H15.9999C10.0288 28.7063 7.04324 28.7063 5.18824 26.849C3.33325 24.9916 3.33325 22.0022 3.33325 16.0235ZM16 11.5163C13.5165 11.5163 11.5 13.5326 11.5 16.0239C11.5 18.5152 13.5165 20.5315 16 20.5315C18.4835 20.5315 20.5 18.5152 20.5 16.0239C20.5 13.5326 18.4835 11.5163 16 11.5163ZM8.5 16.0239C8.5 11.8793 11.8561 8.51626 16 8.51626C20.144 8.51626 23.5 11.8793 23.5 16.0239C23.5 20.1684 20.144 23.5315 16 23.5315C11.8561 23.5315 8.5 20.1684 8.5 16.0239ZM23.3318 6.68156C22.2272 6.68156 21.3318 7.577 21.3318 8.68156C21.3318 9.78613 22.2272 10.6816 23.3318 10.6816H23.3438C24.4484 10.6816 25.3438 9.78613 25.3438 8.68156C25.3438 7.577 24.4484 6.68156 23.3438 6.68156H23.3318Z" fill="#821A5D"/>
<path d="M5.18824 5.19816L4.65757 4.66816L4.65757 4.66817L5.18824 5.19816ZM26.8117 5.19816L27.3423 4.66817L27.3423 4.66815L26.8117 5.19816ZM26.8117 26.849L27.3423 27.379L27.3423 27.379L26.8117 26.849ZM5.18824 26.849L4.65756 27.379L4.65758 27.379L5.18824 26.849ZM4.65757 4.66817C3.56767 5.75945 3.06481 7.1557 2.8218 8.96554C2.58166 10.7539 2.58325 13.0554 2.58325 16.0235H4.08325C4.08325 13.013 4.08484 10.8305 4.30845 9.16516C4.52918 7.52131 4.95382 6.49421 5.71891 5.72815L4.65757 4.66817ZM15.9999 2.59082C13.0356 2.59082 10.7368 2.58922 8.95047 2.82969C7.14248 3.07308 5.74761 3.57675 4.65757 4.66816L5.7189 5.72815C6.48386 4.96223 7.50928 4.53723 9.15059 4.31628C10.8136 4.09242 12.9931 4.09082 15.9999 4.09082V2.59082ZM27.3423 4.66815C26.2522 3.57675 24.8574 3.07308 23.0493 2.82969C21.263 2.58922 18.9642 2.59082 15.9999 2.59082V4.09082C19.0067 4.09082 21.1862 4.09242 22.8492 4.31628C24.4906 4.53723 25.516 4.96223 26.281 5.72816L27.3423 4.66815ZM29.4166 16.0235C29.4166 13.0554 29.4182 10.7539 29.178 8.96553C28.935 7.15571 28.4322 5.75946 27.3423 4.66817L26.281 5.72814C27.046 6.4942 27.4707 7.5213 27.6914 9.16515C27.915 10.8305 27.9166 13.013 27.9166 16.0235H29.4166ZM29.4166 16.0235V16.0235H27.9166V16.0235H29.4166ZM29.4166 16.0236V16.0235H27.9166V16.0236H29.4166ZM27.3423 27.379C28.4322 26.2876 28.935 24.8914 29.178 23.0815C29.4182 21.2932 29.4166 18.9917 29.4166 16.0236H27.9166C27.9166 19.034 27.915 21.2166 27.6914 22.8819C27.4707 24.5258 27.046 25.5529 26.281 26.319L27.3423 27.379ZM15.9999 29.4563C18.9642 29.4563 21.263 29.4579 23.0493 29.2174C24.8573 28.974 26.2522 28.4704 27.3423 27.379L26.281 26.319C25.516 27.0849 24.4906 27.5099 22.8492 27.7308C21.1862 27.9547 19.0067 27.9563 15.9999 27.9563V29.4563ZM15.9999 29.4563H15.9999V27.9563H15.9999V29.4563ZM15.9999 29.4563H15.9999V27.9563H15.9999V29.4563ZM4.65758 27.379C5.74762 28.4704 7.14248 28.974 8.95047 29.2174C10.7368 29.4579 13.0356 29.4563 15.9999 29.4563V27.9563C12.9931 27.9563 10.8136 27.9547 9.15059 27.7308C7.50927 27.5099 6.48385 27.0849 5.71889 26.319L4.65758 27.379ZM2.58325 16.0235C2.58325 18.9917 2.58166 21.2932 2.8218 23.0815C3.06481 24.8914 3.56767 26.2876 4.65756 27.379L5.71892 26.319C4.95382 25.5529 4.52918 24.5258 4.30845 22.8819C4.08484 21.2166 4.08325 19.034 4.08325 16.0235H2.58325ZM12.25 16.0239C12.25 13.946 13.9315 12.2663 16 12.2663V10.7663C13.1015 10.7663 10.75 13.1192 10.75 16.0239H12.25ZM16 19.7815C13.9315 19.7815 12.25 18.1018 12.25 16.0239H10.75C10.75 18.9286 13.1015 21.2815 16 21.2815V19.7815ZM19.75 16.0239C19.75 18.1018 18.0685 19.7815 16 19.7815V21.2815C18.8985 21.2815 21.25 18.9286 21.25 16.0239H19.75ZM16 12.2663C18.0685 12.2663 19.75 13.946 19.75 16.0239H21.25C21.25 13.1192 18.8985 10.7663 16 10.7663V12.2663ZM16 7.76626C11.4409 7.76626 7.75 11.4661 7.75 16.0239H9.25C9.25 12.2926 12.2712 9.26626 16 9.26626V7.76626ZM24.25 16.0239C24.25 11.4661 20.5591 7.76626 16 7.76626V9.26626C19.7288 9.26626 22.75 12.2926 22.75 16.0239H24.25ZM16 24.2815C20.5591 24.2815 24.25 20.5817 24.25 16.0239H22.75C22.75 19.7552 19.7288 22.7815 16 22.7815V24.2815ZM7.75 16.0239C7.75 20.5817 11.4409 24.2815 16 24.2815V22.7815C12.2712 22.7815 9.25 19.7552 9.25 16.0239H7.75ZM22.0818 8.68156C22.0818 7.99121 22.6414 7.43156 23.3318 7.43156V5.93156C21.813 5.93156 20.5818 7.16278 20.5818 8.68156H22.0818ZM23.3318 9.93156C22.6414 9.93156 22.0818 9.37192 22.0818 8.68156H20.5818C20.5818 10.2003 21.813 11.4316 23.3318 11.4316V9.93156ZM23.3438 9.93156H23.3318V11.4316H23.3438V9.93156ZM24.5938 8.68156C24.5938 9.37192 24.0341 9.93156 23.3438 9.93156V11.4316C24.8626 11.4316 26.0938 10.2003 26.0938 8.68156H24.5938ZM23.3438 7.43156C24.0341 7.43156 24.5938 7.99121 24.5938 8.68156H26.0938C26.0938 7.16278 24.8626 5.93156 23.3438 5.93156V7.43156ZM23.3318 7.43156H23.3438V5.93156H23.3318V7.43156Z" fill="#821A5D"/>
</g>
</g>
</svg>
