<svg width="26" height="26" viewBox="0 0 26 26" fill="none" xmlns="http://www.w3.org/2000/svg">
<g id="LinkedIn">
<path id="Subtract" fill-rule="evenodd" clip-rule="evenodd" d="M1.85499 1.85499C0 3.70999 0 6.69555 0 12.6667C0 18.6377 0 21.6233 1.85499 23.4784C3.70998 25.3333 6.69554 25.3333 12.6666 25.3333H12.6667H12.6667C18.6377 25.3333 21.6233 25.3333 23.4784 23.4784C25.3333 21.6233 25.3333 18.6377 25.3333 12.6667V12.6667V12.6666C25.3333 6.69554 25.3333 3.70998 23.4784 1.85499C21.6233 0 18.6377 0 12.6667 0C6.69555 0 3.70999 0 1.85499 1.85499ZM7.61246 8.22493C8.503 8.22493 9.22493 7.503 9.22493 6.61246C9.22493 5.72192 8.503 5 7.61246 5C6.72192 5 6 5.72192 6 6.61246C6 7.503 6.72192 8.22493 7.61246 8.22493ZM6.2099 10.5848C6.41981 10.3749 6.75763 10.3749 7.4333 10.3749H7.79163C8.46729 10.3749 8.80512 10.3749 9.01503 10.5848C9.22493 10.7947 9.22493 11.1325 9.22493 11.8082V17.8997C9.22493 18.5754 9.22493 18.9132 9.01503 19.1231C8.80512 19.333 8.46729 19.333 7.79163 19.333H7.4333C6.75764 19.333 6.41981 19.333 6.2099 19.1231C6 18.9132 6 18.5754 6 17.8997V11.8082C6 11.1325 6 10.7947 6.2099 10.5848ZM13.4001 10.3749H12.8082C12.1325 10.3749 11.7947 10.3749 11.5848 10.5848C11.3749 10.7947 11.3749 11.1325 11.3749 11.8082V17.8997C11.3749 18.5754 11.3749 18.9132 11.5848 19.1231C11.7947 19.333 12.1325 19.333 12.8082 19.333H13.1665C13.8422 19.333 14.18 19.333 14.3899 19.1231C14.5998 18.9132 14.5998 18.5754 14.5998 17.8997L14.5999 15.3915C14.5999 14.2042 14.9783 13.2416 16.0961 13.2416C16.6549 13.2416 17.1081 13.7229 17.1081 14.3165V17.5415C17.1081 18.2171 17.1081 18.5549 17.318 18.7648C17.5278 18.9748 17.8657 18.9748 18.5414 18.9748H18.8988C19.5743 18.9748 19.912 18.9748 20.122 18.7649C20.3319 18.5551 20.3319 18.2173 20.3321 17.5418V17.5418L20.3331 13.5999C20.3331 11.8189 18.6391 10.375 16.9625 10.375C16.008 10.375 15.1564 10.8429 14.5999 11.5746V11.5741C14.5998 11.1228 14.5998 10.8972 14.5018 10.7296C14.4396 10.6235 14.3512 10.5351 14.2451 10.473C14.0774 10.3749 13.8517 10.3749 13.4001 10.3749Z" fill="#821A5D"/>
</g>
</svg>
