<svg width="32" height="33" viewBox="0 0 32 33" fill="none" xmlns="http://www.w3.org/2000/svg">
<g id="snapchat">
<path id="Vector" d="M8.76725 9.91656C8.76725 5.91706 12.0054 2.6748 15.9998 2.6748C19.9942 2.6748 23.2324 5.91706 23.2324 9.91656C23.2324 16.2549 23.548 19.4235 29.3332 21.9584C26.3702 22.7002 25.6294 23.4419 24.8888 26.4086C19.7036 26.4086 18.9628 29.3753 15.9998 29.3753C13.0369 29.3753 12.2961 26.4086 7.11094 26.4086C6.37021 23.4419 5.62946 22.7002 2.6665 21.9584C8.45169 19.4235 8.76725 16.2549 8.76725 9.91656Z" stroke="white" stroke-width="1.5" stroke-linecap="round" stroke-linejoin="round"/>
<path id="Vector_2" d="M2.66675 21.3657C7.76483 18.5849 7.76483 15.9592 3.94127 12.0205" stroke="white" stroke-width="1.5" stroke-linecap="round"/>
<path id="Vector_3" d="M29.3333 21.3657C24.2352 18.5849 24.2352 15.9592 28.0588 12.0205" stroke="white" stroke-width="1.5" stroke-linecap="round"/>
</g>
</svg>
