<svg width="32" height="33" viewBox="0 0 32 33" fill="none" xmlns="http://www.w3.org/2000/svg">
<g id="youtube">
<path id="Vector" d="M15.9998 27.3741C18.4128 27.3741 20.7266 27.1354 22.871 26.6978C25.5496 26.1511 26.8889 25.8777 28.111 24.3044C29.3332 22.731 29.3332 20.925 29.3332 17.3127V14.7401C29.3332 11.1278 29.3332 9.32175 28.111 7.74842C26.8889 6.17511 25.5496 5.90177 22.871 5.35506C20.7266 4.91737 18.4128 4.67871 15.9998 4.67871C13.5869 4.67871 11.273 4.91737 9.12858 5.35506C6.45005 5.90177 5.11078 6.17511 3.88864 7.74842C2.6665 9.32175 2.6665 11.1278 2.6665 14.7401V17.3127C2.6665 20.925 2.6665 22.731 3.88864 24.3044C5.11078 25.8777 6.45005 26.1511 9.12858 26.6978C11.273 27.1354 13.5869 27.3741 15.9998 27.3741Z" stroke="white" stroke-width="1.5"/>
<path id="Vector_2" d="M21.2828 16.4438C21.0849 17.2526 20.0321 17.8334 17.9265 18.9953C15.6363 20.2588 14.4912 20.8907 13.5637 20.6473C13.2496 20.5648 12.9603 20.4198 12.7173 20.2231C12 19.6425 12 18.437 12 16.0261C12 13.6152 12 12.4097 12.7173 11.829C12.9603 11.6323 13.2496 11.4874 13.5637 11.405C14.4912 11.1615 15.6363 11.7933 17.9265 13.0569C20.0321 14.2187 21.0849 14.7996 21.2828 15.6084C21.3501 15.8836 21.3501 16.1685 21.2828 16.4438Z" stroke="white" stroke-width="1.5" stroke-linejoin="round"/>
</g>
</svg>
