<svg width="69" height="82" viewBox="0 0 69 82" fill="none" xmlns="http://www.w3.org/2000/svg">
<g id="Layer_1" clip-path="url(#clip0_763_316)">
<path id="Vector" d="M7.81566 62.3092C6.4747 62.3092 5.38765 62.5783 4.54657 63.1244C3.7055 63.6704 3.28496 64.359 3.28496 65.19V73.4842C2.65812 73.8324 2.14236 74.2835 1.7615 74.8375C1.30129 75.5023 1.07118 76.2779 1.07118 77.1643V78.8817C1.07118 79.3328 1.0077 79.7206 0.888684 80.0372C0.769664 80.3538 0.62684 80.6149 0.468146 80.8207C0.309453 81.0186 0.158694 81.1769 0 81.3035C0.0872815 81.3905 0.198367 81.4855 0.341191 81.5884C0.476081 81.6913 0.642709 81.7863 0.833142 81.8733C1.02357 81.9604 1.25368 81.9999 1.50759 81.9999C1.87259 81.9999 2.22171 81.905 2.54703 81.715C2.88029 81.5251 3.14213 81.2164 3.35637 80.7811C3.56267 80.3459 3.66582 79.776 3.66582 79.0637V77.1643C3.66582 76.7686 3.7531 76.3887 3.92767 76.0247C4.10223 75.6606 4.38788 75.3599 4.78461 75.1303C5.18135 74.8929 5.72884 74.7821 6.42709 74.7821H8.41076C9.43434 74.7821 10.3548 74.5368 11.1562 74.0382C11.9655 73.5475 12.6003 72.8273 13.0605 71.8934C13.5207 70.9595 13.7508 69.8357 13.7508 68.514C13.7508 66.5592 13.2192 65.0317 12.148 63.9395C11.0768 62.8474 9.6327 62.3013 7.80773 62.3013L7.81566 62.3092ZM10.2516 71.6401C9.67238 72.3682 8.8313 72.7323 7.73632 72.7323H6.43503C6.25253 72.7323 6.0859 72.7481 5.91134 72.7561V65.1979C5.92721 64.9367 6.09384 64.731 6.40329 64.5885C6.71274 64.446 7.18882 64.3669 7.80773 64.3669C8.88684 64.3669 9.70412 64.7072 10.2675 65.3958C10.8308 66.0843 11.1165 67.1211 11.1165 68.5298C11.1165 69.9386 10.8229 70.9199 10.2437 71.648L10.2516 71.6401Z" fill="#F8F9FC"/>
<path id="Vector_2" d="M26.1368 60.6153C26.5495 60.6153 26.9224 60.4571 27.2477 60.1484C27.5651 59.8397 27.7317 59.4678 27.7317 59.0325C27.7317 58.5972 27.573 58.2252 27.2477 57.9007C26.9224 57.5842 26.5574 57.418 26.1368 57.418C25.6687 57.418 25.2799 57.5763 24.9625 57.9007C24.6531 58.2252 24.4944 58.5972 24.4944 59.0325C24.4944 59.4678 24.6531 59.8397 24.9625 60.1484C25.272 60.4571 25.6687 60.6153 26.1368 60.6153Z" fill="#F8F9FC"/>
<path id="Vector_3" d="M68.8413 66.2981C68.7382 65.5937 68.5557 64.9447 68.3097 64.3353C68.0558 63.7259 67.7304 63.2432 67.3337 62.8633C66.937 62.4913 66.4371 62.3014 65.8499 62.3014C65.5722 62.3014 65.3262 62.3409 65.1199 62.428C64.9136 62.5151 64.7391 62.6179 64.5963 62.7367C64.4614 62.8554 64.3503 62.982 64.2868 63.1007C64.8978 63.5835 65.3421 64.1296 65.6436 64.7231C65.9372 65.3246 66.1356 65.9182 66.2467 66.5197C66.3498 67.1212 66.4054 67.6989 66.4054 68.2767C66.4054 68.5378 66.3895 68.8544 66.3657 69.2343C66.3419 69.6142 66.2705 70.002 66.1673 70.4056C66.0642 70.8013 65.9134 71.1733 65.723 71.5215C65.5325 71.8698 65.2786 72.1547 64.9692 72.3763C64.6597 72.5979 64.2709 72.7166 63.8266 72.7166H62.4459C61.9778 72.7166 61.5811 72.5662 61.2478 72.2734C60.9146 71.9806 60.6765 71.6165 60.5178 71.1812C60.3591 70.7459 60.2798 70.3106 60.2798 69.8595V64.4066C60.2798 63.9713 60.1687 63.6468 59.9386 63.4331C59.7164 63.2194 59.3911 63.1086 58.9785 63.1086C58.5659 63.1086 58.2644 63.2194 58.0263 63.4331C57.7962 63.6468 57.6772 63.9713 57.6772 64.4066V69.8595C57.6772 70.3106 57.5979 70.7538 57.4392 71.1812C57.2805 71.6165 57.0504 71.9806 56.733 72.2734C56.4235 72.5662 56.0109 72.7166 55.511 72.7166H54.5192C54.0352 72.7166 53.6305 72.5662 53.3052 72.2734C52.9799 71.9806 52.7418 71.6165 52.5911 71.1812C52.4324 70.7459 52.353 70.3106 52.353 69.8595V65.0239C52.353 64.5886 52.242 64.2641 52.0118 64.0504C51.7897 63.8367 51.4643 63.7259 51.0517 63.7259C50.6391 63.7259 50.3138 63.8367 50.0917 64.0504C49.8695 64.2641 49.7505 64.5886 49.7505 65.0239V69.8595C49.7505 70.3106 49.6711 70.7538 49.5124 71.1812C49.3537 71.6165 49.1236 71.9806 48.8062 72.2734C48.4968 72.5662 48.0842 72.7166 47.5843 72.7166H29.5805C29.0965 72.7166 28.6918 72.5662 28.3665 72.2734C28.0412 71.9806 27.8031 71.6165 27.6524 71.1812C27.4937 70.7459 27.4143 70.3106 27.4143 69.8595V63.5993C27.4143 63.164 27.3032 62.8395 27.0731 62.6259C26.851 62.4122 26.5256 62.3014 26.113 62.3014C25.7004 62.3014 25.3751 62.4122 25.1529 62.6259C24.9308 62.8395 24.8118 63.164 24.8118 63.5993V69.8595C24.8118 70.3106 24.7324 70.7538 24.5737 71.1812C24.415 71.6165 24.1849 71.9806 23.8675 72.2734C23.5581 72.5662 23.1455 72.7166 22.6456 72.7166H21.0269C20.5429 72.7166 20.1382 72.5662 19.8129 72.2734C19.4876 71.9806 19.2495 71.6165 19.0988 71.1812C18.9401 70.7459 18.8607 70.3106 18.8607 69.8595V60.5602C18.8607 59.8479 18.7576 59.2781 18.5513 58.8428C18.345 58.4075 18.0752 58.0989 17.742 57.9089C17.4087 57.719 17.0675 57.624 16.7025 57.624C16.3692 57.624 16.0757 57.6794 15.8138 57.7902C15.552 57.901 15.3457 58.0356 15.187 58.178C15.0283 58.3284 14.9251 58.4471 14.8775 58.5579C15.0521 58.6608 15.2425 58.8349 15.4647 59.0803C15.6789 59.3256 15.8694 59.6422 16.0281 60.03C16.1868 60.4178 16.2661 60.9005 16.2661 61.4704V69.8595C16.2661 70.7934 16.4724 71.6323 16.8771 72.3842C17.2817 73.1281 17.853 73.7138 18.5672 74.1412C19.2892 74.5685 20.1065 74.7743 21.0269 74.7743H22.6456C23.5819 74.7743 24.4071 74.5606 25.1212 74.1412C25.4941 73.9196 25.8195 73.6505 26.113 73.3418C26.4066 73.6505 26.7399 73.9196 27.1128 74.1412C27.8349 74.5685 28.6521 74.7743 29.5726 74.7743H47.5764C48.5126 74.7743 49.3379 74.5606 50.052 74.1412C50.4249 73.9196 50.7502 73.6505 51.0438 73.3418C51.3374 73.6505 51.6706 73.9196 52.0436 74.1412C52.7656 74.5685 53.5829 74.7743 54.5033 74.7743H55.4952C56.4315 74.7743 57.2567 74.5606 57.9708 74.1412C58.3437 73.9196 58.669 73.6505 58.9626 73.3418C59.2562 73.6505 59.5895 73.9196 59.9624 74.1412C60.6845 74.5685 61.5017 74.7743 62.4221 74.7743H63.8028C65.4373 74.7743 66.7069 74.2045 67.6194 73.0569C68.5319 71.9172 68.9841 70.3344 68.9841 68.3242C68.9841 67.6673 68.9286 66.9866 68.8254 66.2823L68.8413 66.2981Z" fill="#F8F9FC"/>
<path id="Vector_4" d="M43.8074 47.454C43.4583 47.082 43.3154 46.9317 43.1647 46.7813C41.8211 45.3673 41.8528 43.9532 43.2599 42.5392C43.9819 41.819 44.6961 41.0909 45.4816 40.4498C46.9575 39.231 48.8856 39.1677 50.3932 40.157C50.9724 40.5369 51.0279 40.8139 50.5043 41.2967C49.5204 42.2147 48.592 43.1803 47.6398 44.1221C47.3383 44.4228 47.0051 44.6919 47.4811 45.143C48.1873 45.8078 48.8221 46.5597 49.568 47.177C50.2742 47.7706 53.4956 47.5331 54.1463 46.8842C55.6618 45.3884 57.1456 43.8609 58.669 42.3809C59.1372 41.9298 59.1531 41.6449 58.669 41.17C54.8842 37.4345 54.2256 37.9727 50.4725 34.1976C49.925 33.6436 49.2823 33.6752 48.7269 34.2688C47.4018 35.6854 43.1726 32.6305 41.8475 34.0472C41.2683 34.6645 40.9588 34.6724 40.3479 34.0472C36.9121 30.5491 34.1271 27.3438 30.6914 23.8377C30.001 23.1334 29.644 23.0305 28.8902 23.8061C25.4703 27.32 21.9711 30.7548 18.4957 34.2213C17.9244 34.7911 13.6556 35.0523 13.0446 34.6566C12.751 34.4666 12.8304 34.1738 12.8304 33.9126C12.8304 27.3913 12.8304 20.8699 12.8224 14.3564C12.8224 13.9053 12.9018 13.5966 13.3382 13.3513C15.5996 12.0929 17.8134 10.7475 20.0986 9.5287C21.7014 8.67396 23.2328 9.0301 24.6293 10.1302C25.4069 10.7475 25.5894 11.2065 24.5023 11.7922C22.2568 12.9872 20.0827 14.3089 17.8768 15.5752C17.4325 15.8285 17.0199 16.0184 17.0199 16.6832C17.0516 20.6008 17.0358 24.5105 17.0358 28.4359C17.5991 28.523 18.464 28.3331 18.6941 28.0956C22.114 24.7083 25.5417 21.3289 28.8981 17.8783C29.6678 17.0868 30.0169 17.2372 30.6914 17.9258C34.0953 21.3922 36.8645 24.55 40.2526 28.0323C40.9668 28.7683 41.3238 28.6417 41.9348 27.9927C43.2043 26.6473 47.3701 29.7814 48.6237 28.4201C49.2585 27.7316 49.9409 27.7711 50.5677 28.4043C54.9636 32.8442 55.4 33.4378 60.6448 37.8619C63.1997 40.4103 65.7865 42.4284 68.3811 44.9373C69.119 45.6495 69.0159 45.9661 68.1748 46.4093C66.453 47.3195 64.5804 47.1216 63.1045 45.5704C62.3428 44.7631 61.954 44.9135 61.2796 45.6179C59.5895 47.3907 57.8042 49.0764 56.0982 50.8413C55.5745 51.3795 55.0588 51.6327 54.2891 51.6248C47.7985 51.5932 41.3159 51.5853 34.8253 51.6248C33.7462 51.6248 33.5637 51.3162 33.8811 50.3585C34.4603 48.6253 35.9838 47.4857 38.0071 47.4461C39.84 47.4144 41.673 47.4461 43.7756 47.4461L43.8074 47.454Z" fill="#F8F9FC"/>
<path id="Vector_5" d="M16.163 47.4145C18.1069 47.4145 19.7812 47.3749 21.4395 47.4224C23.4073 47.4778 25.0419 48.8944 25.4227 50.6831C25.5655 51.3637 25.4227 51.5853 24.7165 51.5853C19.4796 51.5695 14.2507 51.5695 9.0138 51.5853C8.49805 51.5853 8.16479 51.3874 7.81567 51.0392C5.92721 49.1398 4.03082 47.2404 2.08682 45.3884C1.48379 44.8107 1.59487 44.4704 2.13443 43.948C3.84039 42.3177 5.48287 40.624 7.18883 39.0016C7.75219 38.4634 8.04577 38.0598 7.23643 37.5216C4.68147 35.8279 4.2768 33.4062 4.34027 30.4858C4.51484 22.2154 4.36408 13.9449 4.41169 5.67448C4.41169 4.55857 4.0943 4.28948 3.02312 4.32114C0.579234 4.39237 -0.547491 2.8016 0.253912 0.546022C0.293585 0.427308 0.364997 0.292765 0.460213 0.221536C1.30922 -0.37995 3.9356 0.316508 4.20538 1.31371C4.42756 2.14471 4.85603 2.22385 5.57808 2.21594C10.7674 2.1922 15.9566 2.1922 21.138 2.21594C23.1058 2.21594 24.7086 3.37143 25.3116 5.08091C25.6449 6.03063 25.5576 6.45009 24.3436 6.43426C19.5273 6.36303 14.7109 6.43426 9.89455 6.37886C8.86304 6.36303 8.58533 6.6242 8.58533 7.66889C8.63294 15.7573 8.625 23.8457 8.59326 31.9341C8.59326 32.7018 8.82337 33.2241 9.37086 33.7307C10.688 34.9574 11.9338 36.2711 13.2509 37.4899C13.8064 37.9965 13.8857 38.2814 13.2827 38.8512C11.4974 40.529 9.80727 42.3018 8.04577 44.0113C7.55382 44.4862 7.47447 44.779 7.99816 45.333C10.0532 47.5015 10.0294 47.5174 12.1559 45.3963C13.5286 44.0192 14.941 42.6817 16.2661 41.2651C16.9644 40.5211 17.3293 40.7902 17.6626 41.5183C18.4005 43.1091 18.3688 44.6445 17.2976 46.0928C17.004 46.4885 16.6549 46.8446 16.155 47.4145H16.163Z" fill="#F8F9FC"/>
<path id="Vector_6" d="M42.3553 19.8015C39.0307 19.8569 36.2536 17.1582 36.1583 13.7788C36.0631 10.5339 38.8879 7.61352 42.1887 7.5423C45.5054 7.47107 48.4888 10.3835 48.473 13.6759C48.4571 17.0078 45.7196 19.7461 42.3553 19.7936V19.8015Z" fill="#C7C7C6"/>
<path id="Vector_7" d="M68.389 51.0711C68.0478 51.4114 67.6352 51.5855 67.1433 51.5855C66.6513 51.5855 66.2467 51.4114 65.9055 51.0711C65.5643 50.7308 65.3977 50.3113 65.3977 49.8285C65.3977 49.3458 65.5722 48.9342 65.9134 48.5939C66.2546 48.2536 66.6672 48.0874 67.1512 48.0874C67.6352 48.0874 68.0558 48.2536 68.397 48.5939C68.7382 48.9342 68.9127 49.3458 68.9127 49.8285C68.9127 50.3113 68.7382 50.7308 68.397 51.0711H68.389ZM66.08 48.768C65.7865 49.0609 65.6436 49.417 65.6436 49.8365C65.6436 50.2559 65.7865 50.6121 66.08 50.9128C66.3736 51.2056 66.7307 51.356 67.1512 51.356C67.5718 51.356 67.9288 51.2056 68.2224 50.9128C68.516 50.62 68.6588 50.2559 68.6588 49.8365C68.6588 49.417 68.516 49.0609 68.2224 48.768C67.9288 48.4752 67.5718 48.3248 67.1512 48.3248C66.7307 48.3248 66.3816 48.4752 66.088 48.768H66.08ZM67.1115 48.863C67.3496 48.863 67.5241 48.8867 67.6352 48.9342C67.8336 49.0134 67.9368 49.1796 67.9368 49.4249C67.9368 49.599 67.8733 49.7257 67.7463 49.8048C67.6828 49.8444 67.5876 49.876 67.4686 49.8998C67.6194 49.9235 67.7304 49.9868 67.8019 50.0897C67.8733 50.1926 67.905 50.2876 67.905 50.3905V50.5329C67.905 50.5804 67.905 50.6279 67.905 50.6754C67.905 50.7229 67.9129 50.7624 67.9209 50.7783L67.9368 50.802H67.6194V50.7862C67.6194 50.7862 67.6194 50.7703 67.6194 50.7624V50.6991V50.5487C67.6194 50.3271 67.5559 50.1768 67.4369 50.1055C67.3655 50.066 67.2385 50.0422 67.056 50.0422H66.7862V50.802H66.445V48.8788H67.1195L67.1115 48.863ZM67.4765 49.1637C67.3893 49.1163 67.2544 49.0925 67.0639 49.0925H66.7704V49.789H67.0798C67.2226 49.789 67.3337 49.7731 67.4051 49.7494C67.54 49.694 67.6035 49.599 67.6035 49.4487C67.6035 49.3062 67.5638 49.2112 67.4765 49.1637Z" fill="#C7C7C6"/>
</g>
<defs>
<clipPath id="clip0_763_316">
<rect width="69" height="82" fill="white"/>
</clipPath>
</defs>
</svg>
