<svg width="45" height="63" viewBox="0 0 45 63" fill="none" xmlns="http://www.w3.org/2000/svg">
<g id="Sanam Logo animated" clip-path="url(#clip0_763_898)">
<path id="Vector" d="M3.09535 62.9998C2.40797 62.9998 1.84867 62.9398 1.42173 62.8198C0.994782 62.6998 0.666034 62.5327 0.439753 62.3185C0.23482 62.1042 0.119545 61.8471 0.085389 61.5558C0.0512334 61.2601 0.0341556 60.9002 0.0341556 60.4674H0.439753C0.529412 61.0244 0.759962 61.4658 1.13567 61.8C1.50712 62.1342 2.04934 62.3013 2.76233 62.3013C3.40702 62.3013 3.86812 62.1899 4.1499 61.9628C4.43169 61.7357 4.57258 61.4529 4.57258 61.1144C4.57258 60.7759 4.4445 60.4931 4.18406 60.2746C3.92362 60.0518 3.54791 59.8418 3.04839 59.6362L2.06641 59.212C1.42173 58.9506 0.917932 58.6421 0.550759 58.2779C0.183586 57.9137 0 57.4552 0 56.9024C0 56.1783 0.277514 55.6255 0.828273 55.2442C1.37903 54.8671 2.07495 54.6743 2.91176 54.6743C3.56499 54.6743 4.10721 54.7343 4.53842 54.8543C4.96537 54.9743 5.28985 55.1414 5.50332 55.3556C5.71679 55.5698 5.84061 55.8269 5.87476 56.1183C5.90892 56.414 5.926 56.7739 5.926 57.2067H5.5204C5.43074 56.6539 5.20019 56.2083 4.82448 55.8741C4.45304 55.5399 3.92789 55.3727 3.24905 55.3727C2.70683 55.3727 2.30123 55.4842 2.03226 55.7112C1.76328 55.9383 1.62666 56.2211 1.62666 56.5596C1.62666 56.8553 1.74194 57.1167 1.97249 57.3395C2.20304 57.5666 2.52324 57.768 2.92884 57.9522L3.94497 58.3764C4.68786 58.6806 5.25142 59.0106 5.62713 59.3619C6.00285 59.7133 6.19497 60.1846 6.19497 60.7716C6.19497 61.4958 5.90038 62.0485 5.31546 62.4256C4.73055 62.8069 3.98767 62.9955 3.09962 62.9955L3.09535 62.9998Z" fill="#EF4325"/>
<path id="Vector_2" d="M10.0546 62.9999C9.75142 62.9999 9.45256 62.957 9.15797 62.8713C8.86338 62.7856 8.59013 62.6485 8.33823 62.4643C8.08634 62.28 7.87713 62.0358 7.71916 61.7358C7.56119 61.4359 7.48434 61.0717 7.48434 60.6389C7.48434 60.039 7.66793 59.5634 8.0351 59.2121C8.40228 58.8607 8.91461 58.6079 9.57637 58.4579C10.2381 58.3037 11.0024 58.2266 11.8691 58.2266H12.3088C12.3088 57.4553 12.2362 56.8683 12.0868 56.4612C11.9416 56.0541 11.7367 55.7713 11.4763 55.6128C11.2158 55.4543 10.917 55.3729 10.5797 55.3729C10.1271 55.3729 9.74288 55.4757 9.42694 55.6771C9.111 55.8828 8.88899 56.2727 8.76518 56.8511H7.95398C7.95398 56.5555 7.97106 56.2727 8.00522 56.0027C8.03937 55.7328 8.16319 55.4885 8.37666 55.2743C8.59013 55.0601 8.93596 54.9058 9.4184 54.8158C9.89658 54.7258 10.3961 54.6787 10.917 54.6787C11.3439 54.6787 11.7453 54.7344 12.1167 54.8415C12.4881 54.9487 12.8169 55.1286 13.0987 55.3857C13.3805 55.6385 13.6025 55.9984 13.769 56.4655C13.9312 56.9283 14.0123 57.5238 14.0123 58.248V62.8328H13.0133L12.4198 62.0701H12.3344C12.1637 62.2972 11.8947 62.5071 11.5232 62.7085C11.1518 62.9099 10.6608 63.0042 10.0503 63.0042L10.0546 62.9999ZM10.7505 62.22C11.1561 62.22 11.4805 62.1086 11.7239 61.8901C11.9673 61.6673 12.1594 61.4273 12.3088 61.1702V58.9293H11.8691C11.0323 58.9293 10.3918 59.0835 9.94782 59.3878C9.50379 59.692 9.27751 60.1119 9.27751 60.6432C9.27751 61.1745 9.42267 61.573 9.71727 61.8301C10.0119 62.0915 10.3534 62.22 10.7505 62.22Z" fill="#EF4325"/>
<path id="Vector_3" d="M16.5185 62.8286V56.9369C16.5185 56.427 16.4459 56.0157 16.305 55.7072C16.1641 55.3944 15.8397 55.2401 15.3316 55.2401H15.0455V54.8502H16.6039C17.0223 54.8502 17.3382 54.9059 17.5602 55.0216C17.7823 55.133 17.9402 55.3001 18.0427 55.5144C18.269 55.3215 18.5764 55.133 18.9649 54.953C19.3534 54.7731 19.8231 54.6831 20.3781 54.6831C20.9331 54.6831 21.4113 54.7731 21.8596 54.953C22.3036 55.133 22.6622 55.4458 22.9355 55.8871C23.2045 56.3285 23.3411 56.9498 23.3411 57.7553V62.8329H21.6504V57.7553C21.6504 57.1897 21.565 56.7398 21.3985 56.4056C21.2277 56.0714 21.01 55.8314 20.7367 55.6858C20.4677 55.5401 20.1731 55.4629 19.8572 55.4629C19.5199 55.4629 19.2125 55.5444 18.935 55.7029C18.6575 55.8614 18.4227 56.0414 18.2305 56.2471V62.8371H16.5228L16.5185 62.8286Z" fill="#EF4325"/>
<path id="Vector_4" d="M27.602 62.9999C27.2989 62.9999 27 62.957 26.7054 62.8713C26.4108 62.7856 26.1376 62.6485 25.8857 62.4643C25.6338 62.28 25.4246 62.0358 25.2666 61.7358C25.1086 61.4359 25.0318 61.0717 25.0318 60.6389C25.0318 60.039 25.2154 59.5634 25.5825 59.2121C25.9497 58.8607 26.462 58.6079 27.1238 58.4579C27.7856 58.3037 28.5498 58.2266 29.4165 58.2266H29.8563C29.8563 57.4553 29.7837 56.8683 29.6343 56.4612C29.4891 56.0541 29.2842 55.7713 29.0237 55.6128C28.7633 55.4543 28.4644 55.3729 28.1271 55.3729C27.6746 55.3729 27.2903 55.4757 26.9744 55.6771C26.6584 55.8828 26.4364 56.2727 26.3126 56.8511H25.5014C25.5014 56.5555 25.5185 56.2727 25.5527 56.0027C25.5868 55.7328 25.7106 55.4885 25.9241 55.2743C26.1376 55.0601 26.4834 54.9058 26.9658 54.8158C27.444 54.7258 27.9435 54.6787 28.4644 54.6787C28.8914 54.6787 29.2927 54.7344 29.6641 54.8415C30.0356 54.9487 30.3643 55.1286 30.6461 55.3857C30.9279 55.6385 31.1499 55.9984 31.3164 56.4655C31.4787 56.9283 31.5598 57.5238 31.5598 58.248V62.8328H30.5607L29.9673 62.0701H29.8819C29.7111 62.2972 29.4421 62.5071 29.0707 62.7085C28.6992 62.9099 28.2083 63.0042 27.5977 63.0042L27.602 62.9999ZM28.2979 62.22C28.7035 62.22 29.028 62.1086 29.2713 61.8901C29.5147 61.6673 29.7068 61.4273 29.8563 61.1702V58.9293H29.4165C28.5797 58.9293 27.9393 59.0835 27.4953 59.3878C27.0512 59.692 26.825 60.1119 26.825 60.6432C26.825 61.1745 26.9701 61.573 27.2647 61.8301C27.5593 62.0915 27.9009 62.22 28.2979 62.22Z" fill="#EF4325"/>
<path id="Vector_5" d="M34.0659 62.8286V56.9369C34.0659 56.427 33.9934 56.0157 33.8525 55.7072C33.7116 55.3944 33.3871 55.2401 32.879 55.2401H32.593V54.8502H34.1513C34.5569 54.8502 34.8771 54.9059 35.1077 55.0216C35.3382 55.133 35.5005 55.3001 35.5901 55.5144H35.6755C35.889 55.3087 36.1793 55.1202 36.5465 54.9445C36.9137 54.7688 37.3491 54.6831 37.8572 54.6831C38.186 54.6831 38.4848 54.7217 38.7538 54.8031C39.0228 54.8845 39.2661 55.0088 39.4711 55.1759C39.6803 55.3473 39.8468 55.5615 39.9706 55.8229C40.2396 55.4715 40.5982 55.193 41.0379 54.9916C41.4777 54.7902 41.9559 54.6874 42.4767 54.6874C42.9507 54.6874 43.3776 54.7774 43.7533 54.9573C44.1333 55.1373 44.4322 55.4501 44.6584 55.8914C44.8847 56.3328 44.9957 56.9541 44.9957 57.7596V62.8371H43.2879V57.7596C43.2879 56.9112 43.1684 56.3156 42.925 55.9771C42.6817 55.6386 42.3529 55.4672 41.9345 55.4672C41.6186 55.4672 41.2984 55.5701 40.9696 55.78C40.6409 55.99 40.4018 56.2128 40.2438 56.4527C40.2993 56.5899 40.3378 56.787 40.3548 57.0483C40.3719 57.3097 40.3805 57.5454 40.3805 57.7596V62.8371H38.6897V57.7596C38.6897 56.9112 38.5702 56.3156 38.3268 55.9771C38.0835 55.6386 37.7547 55.4672 37.3363 55.4672C37.0332 55.4672 36.7429 55.5486 36.4739 55.7115C36.2049 55.8743 35.9701 56.0671 35.778 56.2814V62.8371H34.0702L34.0659 62.8286Z" fill="#EF4325"/>
<path id="Vector_6" d="M5.09772 40.873C4.22676 40.873 3.51376 41.053 2.96727 41.4087C2.41651 41.7686 2.14326 42.2185 2.14326 42.7627V48.2044C1.7334 48.4358 1.40038 48.7272 1.14848 49.0957C0.849621 49.5327 0.70019 50.0426 0.70019 50.6211V51.748C0.70019 52.0436 0.661765 52.2964 0.580645 52.5064C0.499526 52.7163 0.409867 52.8877 0.3074 53.0163C0.204934 53.1448 0.102467 53.252 0 53.3334C0.0555028 53.3891 0.128083 53.4533 0.222011 53.5219C0.31167 53.5905 0.418406 53.6504 0.54649 53.7104C0.670304 53.7661 0.819734 53.7961 0.986243 53.7961C1.22533 53.7961 1.45161 53.7319 1.66509 53.6076C1.87856 53.4833 2.05361 53.2777 2.19023 52.9949C2.32685 52.7121 2.39516 52.335 2.39516 51.8679V50.6253C2.39516 50.364 2.45066 50.1154 2.56594 49.8755C2.68121 49.6355 2.8648 49.4427 3.12524 49.2885C3.38567 49.1342 3.74004 49.0571 4.19687 49.0571H5.48624C6.15228 49.0571 6.75 48.8943 7.27941 48.5729C7.80455 48.2473 8.21869 47.7802 8.51755 47.1675C8.81641 46.5547 8.96584 45.8135 8.96584 44.9522C8.96584 43.6668 8.61575 42.6684 7.91983 41.9528C7.22391 41.2373 6.28036 40.8773 5.09345 40.8773L5.09772 40.873ZM6.68596 46.9918C6.30598 47.4674 5.75949 47.7074 5.04649 47.7074H4.19687C4.08159 47.7074 3.97059 47.7159 3.85531 47.7245V42.7669C3.86812 42.5956 3.97486 42.4627 4.17979 42.3685C4.38472 42.2742 4.68786 42.2228 5.09772 42.2228C5.79791 42.2228 6.33586 42.4456 6.70304 42.8955C7.07021 43.3454 7.2538 44.031 7.2538 44.9479C7.2538 45.8649 7.06594 46.5162 6.68596 46.9918Z" fill="#7D1B63"/>
<path id="Vector_7" d="M17.0436 39.7631C17.3169 39.7631 17.556 39.6603 17.7652 39.4546C17.9744 39.249 18.0811 39.0047 18.0811 38.7219C18.0811 38.4391 17.9744 38.1906 17.7652 37.9807C17.556 37.7707 17.3169 37.6636 17.0436 37.6636C16.7362 37.6636 16.4843 37.7707 16.2794 37.9807C16.0745 38.1906 15.972 38.4391 15.972 38.7219C15.972 39.0047 16.0745 39.249 16.2794 39.4546C16.4843 39.6603 16.7362 39.7631 17.0436 39.7631Z" fill="#7D1B63"/>
<path id="Vector_8" d="M44.8805 43.4909C44.8121 43.0324 44.6969 42.6039 44.5304 42.2054C44.3639 41.8069 44.1546 41.4856 43.8942 41.2413C43.6338 40.9971 43.3093 40.8771 42.925 40.8771C42.7457 40.8771 42.5835 40.9071 42.4511 40.9628C42.3145 41.0185 42.2035 41.0871 42.1096 41.1685C42.0199 41.2499 41.9516 41.327 41.9046 41.4085C42.3017 41.7255 42.5963 42.0812 42.7884 42.4754C42.9805 42.8696 43.1129 43.2595 43.1812 43.6537C43.2495 44.0479 43.2837 44.4293 43.2837 44.8063C43.2837 44.9777 43.2751 45.1877 43.2581 45.4362C43.241 45.6847 43.1983 45.9418 43.13 46.2032C43.0617 46.4646 42.9677 46.7088 42.8397 46.9359C42.7158 47.163 42.5493 47.3515 42.3487 47.4972C42.1437 47.6429 41.8961 47.72 41.6015 47.72H40.7007C40.3933 47.72 40.1328 47.6258 39.9194 47.4287C39.7059 47.2358 39.5436 46.9959 39.4454 46.7131C39.343 46.4303 39.2917 46.1389 39.2917 45.8433V42.2654C39.2917 41.9826 39.2192 41.7684 39.0697 41.627C38.9246 41.4856 38.7111 41.4127 38.4421 41.4127C38.1731 41.4127 37.9768 41.4856 37.8231 41.627C37.6694 41.7684 37.5925 41.9826 37.5925 42.2654V45.8433C37.5925 46.1389 37.5413 46.4303 37.4388 46.7131C37.3363 46.9959 37.1826 47.2358 36.982 47.4287C36.777 47.6215 36.5123 47.72 36.1836 47.72H35.5389C35.223 47.72 34.9583 47.6258 34.7491 47.4287C34.5398 47.2358 34.3819 46.9959 34.2837 46.7131C34.1812 46.4303 34.13 46.1389 34.13 45.8433V42.6725C34.13 42.3897 34.0574 42.1754 33.908 42.034C33.7628 41.8926 33.5493 41.8198 33.2804 41.8198C33.0114 41.8198 32.7979 41.8926 32.6528 42.034C32.5076 42.1754 32.4307 42.3897 32.4307 42.6725V45.8433C32.4307 46.1389 32.3795 46.4303 32.277 46.7131C32.1746 46.9959 32.0209 47.2358 31.8202 47.4287C31.6153 47.6215 31.3506 47.72 31.0218 47.72H19.2851C18.9692 47.72 18.7045 47.6258 18.4953 47.4287C18.2861 47.2358 18.1281 46.9959 18.0299 46.7131C17.9274 46.4303 17.8762 46.1389 17.8762 45.8433V41.7341C17.8762 41.4513 17.8036 41.2371 17.6542 41.0957C17.509 40.9543 17.2955 40.8814 17.0266 40.8814C16.7576 40.8814 16.5441 40.9543 16.399 41.0957C16.2538 41.2371 16.1769 41.4513 16.1769 41.7341V45.8433C16.1769 46.1389 16.1257 46.4303 16.0232 46.7131C15.9208 46.9959 15.7671 47.2358 15.5664 47.4287C15.3615 47.6215 15.0968 47.72 14.768 47.72H13.7135C13.3975 47.72 13.1328 47.6258 12.9236 47.4287C12.7144 47.2358 12.5565 46.9959 12.4583 46.7131C12.3558 46.4303 12.3046 46.1389 12.3046 45.8433V39.7417C12.3046 39.2746 12.2362 38.9018 12.0996 38.6147C11.963 38.3319 11.788 38.1263 11.5745 38.002C11.361 37.8778 11.1347 37.8135 10.8956 37.8135C10.6822 37.8135 10.49 37.852 10.3193 37.9249C10.1485 37.9977 10.0119 38.0834 9.91366 38.182C9.8112 38.2805 9.74288 38.3619 9.70873 38.4305C9.824 38.4991 9.94782 38.6105 10.093 38.7733C10.2339 38.9318 10.3577 39.1375 10.4602 39.3946C10.5626 39.6517 10.6139 39.9645 10.6139 40.3415V45.8476C10.6139 46.4603 10.7462 47.013 11.0109 47.5015C11.2756 47.99 11.6428 48.3756 12.1167 48.6541C12.5863 48.9326 13.12 49.074 13.722 49.074H14.7766C15.3871 49.074 15.925 48.9369 16.3904 48.6541C16.6338 48.5084 16.8472 48.3328 17.0351 48.1271C17.2272 48.3285 17.4407 48.5084 17.6883 48.6541C18.158 48.9326 18.6916 49.074 19.2936 49.074H31.0304C31.6409 49.074 32.1788 48.9369 32.6442 48.6541C32.8876 48.5084 33.101 48.3328 33.2889 48.1271C33.481 48.3328 33.6945 48.5084 33.9421 48.6541C34.4118 48.9326 34.9454 49.074 35.5474 49.074H36.1921C36.8027 49.074 37.3406 48.9369 37.806 48.6541C38.0493 48.5084 38.2628 48.3328 38.4507 48.1271C38.6428 48.3328 38.8563 48.5084 39.1039 48.6541C39.5735 48.9326 40.1072 49.074 40.7092 49.074H41.6101C42.6731 49.074 43.5057 48.697 44.0991 47.9471C44.6926 47.1973 44.9915 46.1646 44.9915 44.8449C44.9915 44.4121 44.9573 43.9665 44.889 43.508L44.8805 43.4909Z" fill="#7D1B63"/>
<path id="Vector_9" d="M28.5626 31.1295C28.3363 30.8896 28.2424 30.7868 28.1442 30.6882C27.2676 29.7598 27.2889 28.8314 28.2083 27.9031C28.6779 27.4317 29.1475 26.9561 29.6599 26.5319C30.6248 25.7349 31.88 25.6921 32.8577 26.3391C33.2334 26.5876 33.2718 26.7719 32.9345 27.0889C32.2941 27.6888 31.6879 28.323 31.0688 28.9443C30.8724 29.1414 30.6589 29.3213 30.962 29.6127C31.4231 30.0498 31.8373 30.5382 32.3197 30.9496C32.7808 31.3395 34.8814 31.1853 35.3083 30.7611C36.2946 29.7798 37.2638 28.7815 38.2585 27.8088C38.5659 27.5089 38.5745 27.3246 38.2585 27.0161C35.7908 24.5652 35.3596 24.9208 32.9175 22.4399C32.5588 22.0757 32.1404 22.0971 31.7775 22.487C30.9108 23.4168 28.157 21.4115 27.2946 22.3413C26.9189 22.7484 26.7139 22.7527 26.3169 22.3413C24.0797 20.0447 22.2609 17.9408 20.0237 15.6441C19.5754 15.1857 19.3406 15.1128 18.8496 15.6227C16.621 17.928 14.3368 20.1818 12.074 22.4527C11.7026 22.8255 8.91888 22.9969 8.52182 22.7398C8.33397 22.6156 8.38093 22.4228 8.38093 22.2514C8.38093 17.9751 8.38093 13.6988 8.37239 9.41827C8.37239 9.12261 8.42362 8.92123 8.70968 8.7584C10.1826 7.93143 11.63 7.05303 13.12 6.25177C14.1618 5.69474 15.1651 5.92184 16.0702 6.65026C16.5783 7.05732 16.6978 7.35726 15.9848 7.73861C14.5204 8.52273 13.1029 9.39256 11.6684 10.2238C11.3824 10.3909 11.1091 10.5152 11.1091 10.948C11.1262 13.5146 11.1176 16.0855 11.1176 18.6564C11.4848 18.7121 12.0484 18.5878 12.2021 18.4336C14.4307 16.2097 16.6679 13.9945 18.8539 11.7321C19.3534 11.2136 19.584 11.3122 20.0237 11.7664C22.2438 14.0416 24.0498 16.1112 26.2571 18.395C26.7225 18.8749 26.9573 18.7978 27.3544 18.3693C28.1784 17.4866 30.898 19.5433 31.7135 18.6478C32.1233 18.1979 32.5716 18.2236 32.9772 18.635C35.842 21.5486 36.1281 21.9343 39.5479 24.8437C41.213 26.5148 42.8994 27.8388 44.5944 29.4842C45.0726 29.9469 45.0085 30.1612 44.462 30.4525C43.3392 31.0481 42.1181 30.9196 41.1575 29.8998C40.658 29.3728 40.4061 29.467 39.9706 29.9298C38.8691 31.0953 37.7035 32.2008 36.5892 33.3534C36.2476 33.709 35.9103 33.8718 35.4108 33.8676C31.1798 33.8504 26.9488 33.8419 22.722 33.8718C22.0176 33.8761 21.898 33.6705 22.1072 33.0406C22.4829 31.9051 23.4777 31.1553 24.797 31.1295C25.9924 31.1081 27.1836 31.1253 28.5583 31.1253L28.5626 31.1295Z" fill="#7D1B63"/>
<path id="Vector_10" d="M10.537 31.1079C11.805 31.1079 12.8937 31.0822 13.9782 31.1164C15.259 31.155 16.3264 32.0805 16.5783 33.2546C16.6722 33.7002 16.5783 33.8459 16.1172 33.8459C12.7059 33.833 9.29459 33.833 5.87903 33.8459C5.54174 33.8459 5.32827 33.7131 5.09772 33.486C3.86384 32.2391 2.62997 30.9922 1.36622 29.7796C0.973427 29.4025 1.04601 29.1754 1.40037 28.8369C2.51043 27.77 3.58206 26.6559 4.69639 25.589C5.06356 25.2376 5.25569 24.972 4.73054 24.6206C3.06546 23.5066 2.80075 21.9169 2.83918 20.0058C2.95018 14.5812 2.85625 9.15235 2.88614 3.72774C2.88614 2.99503 2.67694 2.81936 1.98102 2.84078C0.379974 2.88363 -0.354372 1.83813 0.166501 0.359858C0.192118 0.282731 0.239082 0.19275 0.303124 0.145616C0.858152 -0.248589 2.5702 0.209889 2.74525 0.865469C2.89468 1.40964 3.17219 1.46106 3.63756 1.46106C7.01897 1.44392 10.4004 1.44821 13.786 1.46106C15.0669 1.46106 16.1172 2.21948 16.5057 3.33782C16.7234 3.95912 16.6679 4.23764 15.8738 4.22478C12.7358 4.17765 9.59345 4.22478 6.45113 4.19051C5.77656 4.18194 5.59724 4.34904 5.60151 5.0389C5.6314 10.3435 5.62713 15.6482 5.60578 20.9528C5.60578 21.4541 5.75521 21.7969 6.11384 22.1354C6.972 22.941 7.7832 23.8022 8.64563 24.6035C9.00426 24.9377 9.05977 25.1262 8.66698 25.499C7.50569 26.6002 6.3999 27.7657 5.25142 28.884C4.93121 29.1968 4.8757 29.3897 5.22153 29.7496C6.56214 31.1721 6.54933 31.185 7.93263 29.7924C8.82922 28.8926 9.74715 28.0142 10.6096 27.0844C11.0664 26.5959 11.3012 26.7716 11.5232 27.2472C12.0057 28.2884 11.9801 29.2997 11.2841 30.2466C11.092 30.5037 10.8657 30.7394 10.5413 31.1122L10.537 31.1079Z" fill="#7D1B63"/>
<path id="Vector_11" d="M27.6148 12.9875C25.4459 13.0217 23.6357 11.2521 23.5759 9.03683C23.5161 6.91155 25.3563 4.99623 27.5038 4.9491C29.6684 4.90196 31.611 6.80872 31.6025 8.97256C31.5939 11.1578 29.8093 12.9532 27.6148 12.9875Z" fill="#EF4325"/>
<path id="Vector_12" d="M44.5859 33.5031C44.3638 33.7302 44.0906 33.8416 43.7747 33.8416C43.4587 33.8416 43.1897 33.7302 42.9677 33.5031C42.7457 33.2803 42.6347 33.0061 42.6347 32.689C42.6347 32.3719 42.7457 32.102 42.972 31.8791C43.194 31.6563 43.463 31.5449 43.7789 31.5449C44.0949 31.5449 44.3681 31.6563 44.5901 31.8791C44.8121 32.102 44.9274 32.3719 44.9274 32.689C44.9274 33.0061 44.8164 33.2803 44.5901 33.5031H44.5859ZM43.0787 31.9905C42.8866 32.1834 42.7927 32.4147 42.7927 32.689C42.7927 32.9632 42.8866 33.1989 43.0787 33.3917C43.2709 33.5845 43.5014 33.6831 43.7747 33.6831C44.0479 33.6831 44.2785 33.5845 44.4706 33.3917C44.6627 33.1989 44.7566 32.9632 44.7566 32.689C44.7566 32.4147 44.6627 32.1834 44.4706 31.9905C44.2785 31.7977 44.0479 31.6992 43.7747 31.6992C43.5014 31.6992 43.2709 31.7977 43.0787 31.9905ZM43.7533 32.0548C43.9113 32.0548 44.0223 32.072 44.0949 32.1019C44.223 32.1577 44.2913 32.2648 44.2913 32.4233C44.2913 32.5347 44.2486 32.6204 44.1675 32.6718C44.1248 32.7018 44.065 32.719 43.9839 32.7318C44.0821 32.749 44.1546 32.7875 44.2016 32.8561C44.2486 32.9246 44.2699 32.9889 44.2699 33.0532V33.1475C44.2699 33.1774 44.2699 33.2074 44.2699 33.2417C44.2699 33.276 44.2742 33.2974 44.2827 33.306L44.2913 33.3231H44.0821C44.0821 33.3231 44.0821 33.3146 44.0821 33.3103C44.0821 33.3103 44.0821 33.3017 44.0821 33.2974V33.2589L44.0778 33.1603C44.0778 33.0146 44.0394 32.9204 43.9582 32.8732C43.9113 32.8475 43.8302 32.8347 43.7106 32.8347H43.5356V33.3317H43.3136V32.072H43.7533V32.0548ZM43.9924 32.2519C43.9369 32.2219 43.8472 32.2048 43.7234 32.2048H43.5356V32.6633H43.7362C43.8302 32.6633 43.8985 32.6547 43.9454 32.6333C44.0308 32.599 44.0735 32.5347 44.0735 32.4362C44.0735 32.3462 44.0436 32.2819 43.9881 32.2519H43.9924Z" fill="#7D1B63"/>
</g>
<defs>
<clipPath id="clip0_763_898">
<rect width="45" height="63" fill="white"/>
</clipPath>
</defs>
</svg>
