<svg width="42" height="43" viewBox="0 0 42 43" fill="none" xmlns="http://www.w3.org/2000/svg">
<g id="arrow-all-direction-round">
<path id="Vector" d="M15.75 22.7617C16.4749 22.7617 17.0625 22.1741 17.0625 21.4492C17.0625 20.7244 16.4749 20.1367 15.75 20.1367V22.7617ZM5.25 20.1367C4.52513 20.1367 3.9375 20.7244 3.9375 21.4492C3.9375 22.1741 4.52513 22.7617 5.25 22.7617V20.1367ZM15.75 20.1367H5.25V22.7617H15.75V20.1367Z" fill="#E63415"/>
<path id="Vector_2" d="M19.6875 16.1992C19.6875 16.9241 20.2752 17.5117 21 17.5117C21.7248 17.5117 22.3125 16.9241 22.3125 16.1992H19.6875ZM22.3125 5.69922C22.3125 4.97435 21.7248 4.38672 21 4.38672C20.2752 4.38672 19.6875 4.97435 19.6875 5.69922H22.3125ZM22.3125 16.1992V5.69922H19.6875V16.1992H22.3125Z" fill="#E63415"/>
<path id="Vector_3" d="M36.75 22.7617C37.4748 22.7617 38.0625 22.1741 38.0625 21.4492C38.0625 20.7244 37.4748 20.1367 36.75 20.1367V22.7617ZM26.25 20.1367C25.5252 20.1367 24.9375 20.7244 24.9375 21.4492C24.9375 22.1741 25.5252 22.7617 26.25 22.7617V20.1367ZM36.75 20.1367H26.25V22.7617H36.75V20.1367Z" fill="#E63415"/>
<path id="Vector_4" d="M19.6875 37.1992C19.6875 37.9241 20.2752 38.5117 21 38.5117C21.7248 38.5117 22.3125 37.9241 22.3125 37.1992H19.6875ZM22.3125 26.6992C22.3125 25.9744 21.7248 25.3867 21 25.3867C20.2752 25.3867 19.6875 25.9744 19.6875 26.6992H22.3125ZM22.3125 37.1992V26.6992H19.6875V37.1992H22.3125Z" fill="#E63415"/>
<path id="Vector_5" d="M26.25 10.9492C26.25 10.9492 22.3834 5.69924 21 5.69922C19.6164 5.6992 15.75 10.9492 15.75 10.9492" stroke="#E63415" stroke-width="2.03226" stroke-linecap="round" stroke-linejoin="round"/>
<path id="Vector_6" d="M10.5 26.6992C10.5 26.6992 5.25002 22.8326 5.25 21.4492C5.24998 20.0657 10.5 16.1992 10.5 16.1992" stroke="#E63415" stroke-width="2.03226" stroke-linecap="round" stroke-linejoin="round"/>
<path id="Vector_7" d="M31.5 16.1992C31.5 16.1992 36.75 20.0658 36.75 21.4492C36.75 22.8328 31.5 26.6992 31.5 26.6992" stroke="#E63415" stroke-width="2.03226" stroke-linecap="round" stroke-linejoin="round"/>
<path id="Vector_8" d="M15.75 31.9492C15.75 31.9492 19.6166 37.1992 21 37.1992C22.3836 37.1992 26.25 31.9492 26.25 31.9492" stroke="#E63415" stroke-width="2.03226" stroke-linecap="round" stroke-linejoin="round"/>
</g>
</svg>
