<svg width="18" height="19" viewBox="0 0 18 19" fill="none" xmlns="http://www.w3.org/2000/svg">
<path d="M12 10.175V13.325C12 15.95 10.95 17 8.325 17H5.175C2.55 17 1.5 15.95 1.5 13.325V10.175C1.5 7.55 2.55 6.5 5.175 6.5H8.325C10.95 6.5 12 7.55 12 10.175Z" stroke="#821A5D" stroke-width="1.5" stroke-linecap="round" stroke-linejoin="round"/>
<path d="M16.5 5.675V8.825C16.5 11.45 15.45 12.5 12.825 12.5H12V10.175C12 7.55 10.95 6.5 8.325 6.5H6V5.675C6 3.05 7.05 2 9.675 2H12.825C15.45 2 16.5 3.05 16.5 5.675Z" stroke="#821A5D" stroke-width="1.5" stroke-linecap="round" stroke-linejoin="round"/>
</svg>
