<svg width="32" height="32" viewBox="0 0 32 32" fill="none" xmlns="http://www.w3.org/2000/svg">
<g id="filter-vertical">
<path id="Vector" d="M28 22.666L24 22.666" stroke="#141B34" stroke-width="1.5" stroke-linecap="round" stroke-linejoin="round"/>
<path id="Vector_2" d="M28 9.33398L20 9.33398" stroke="#141B34" stroke-width="1.5" stroke-linecap="round" stroke-linejoin="round"/>
<path id="Vector_3" d="M8 9.33398L4 9.33398" stroke="#141B34" stroke-width="1.5" stroke-linecap="round" stroke-linejoin="round"/>
<path id="Vector_4" d="M12 22.666L4 22.666" stroke="#141B34" stroke-width="1.5" stroke-linecap="round" stroke-linejoin="round"/>
<path id="Vector_5" d="M24 22.666C24 23.9085 24 24.5298 23.7971 25.0198C23.5264 25.6732 23.0072 26.1924 22.3539 26.463C21.8637 26.666 21.2425 26.666 20 26.666C18.7575 26.666 18.1363 26.666 17.6461 26.463C16.9928 26.1924 16.4736 25.6732 16.2029 25.0198C16 24.5298 16 23.9085 16 22.666C16 21.4235 16 20.8023 16.2029 20.3122C16.4736 19.6588 16.9928 19.1397 17.6461 18.869C18.1363 18.666 18.7575 18.666 20 18.666C21.2425 18.666 21.8637 18.666 22.3539 18.869C23.0072 19.1397 23.5264 19.6588 23.7971 20.3122C24 20.8023 24 21.4235 24 22.666Z" stroke="#141B34" stroke-width="1.5"/>
<path id="Vector_6" d="M16 9.33398C16 10.5765 16 11.1977 15.7971 11.6879C15.5264 12.3412 15.0072 12.8604 14.3539 13.1311C13.8637 13.334 13.2425 13.334 12 13.334C10.7575 13.334 10.1362 13.334 9.64617 13.1311C8.99277 12.8604 8.47364 12.3412 8.20299 11.6879C8 11.1977 8 10.5765 8 9.33398C8 8.09145 8 7.47025 8.20299 6.98012C8.47364 6.32678 8.99277 5.80759 9.64617 5.53692C10.1362 5.33398 10.7575 5.33398 12 5.33398C13.2425 5.33398 13.8637 5.33398 14.3539 5.53692C15.0072 5.80758 15.5264 6.32678 15.7971 6.98012C16 7.47025 16 8.09145 16 9.33398Z" stroke="#141B34" stroke-width="1.5"/>
</g>
</svg>
