<svg width="48" height="48" viewBox="0 0 48 48" fill="none" xmlns="http://www.w3.org/2000/svg">
<g clip-path="url(#clip0_602_6038)">
<rect width="48" height="48" fill="#EEFBFF"/>
<path d="M35.9126 16.3461C35.1201 16.6872 34.2869 16.9247 33.4336 17.0528C33.8325 16.9844 34.4195 16.2663 34.6532 15.9757C35.0082 15.5373 35.2787 15.0368 35.451 14.4997C35.451 14.4598 35.4909 14.4028 35.451 14.3743C35.4309 14.3633 35.4084 14.3576 35.3855 14.3576C35.3626 14.3576 35.3401 14.3633 35.32 14.3743C34.3934 14.876 33.4073 15.259 32.385 15.5141C32.3494 15.525 32.3114 15.526 32.2753 15.5169C32.2392 15.5079 32.2062 15.4892 32.1798 15.4628C32.1003 15.368 32.0146 15.2786 31.9234 15.1949C31.5064 14.8214 31.0333 14.5156 30.5214 14.2888C29.8305 14.0053 29.0841 13.8826 28.3388 13.9298C27.6155 13.9755 26.9094 14.1694 26.2643 14.4997C25.6291 14.8478 25.0708 15.3208 24.623 15.8902C24.152 16.4763 23.812 17.1564 23.6257 17.8848C23.4722 18.5778 23.4547 19.2939 23.5744 19.9935C23.5744 20.1131 23.5744 20.1302 23.4719 20.1131C19.4085 19.5147 16.0746 18.0729 13.3505 14.9784C13.2309 14.8416 13.1682 14.8416 13.0713 14.9784C11.8859 16.7793 12.4615 19.6287 13.9432 21.0364C14.1427 21.2244 14.3479 21.4068 14.5644 21.5778C13.8851 21.5295 13.2223 21.3454 12.6154 21.0364C12.5014 20.9623 12.4387 21.0022 12.433 21.1389C12.4169 21.3286 12.4169 21.5192 12.433 21.7088C12.5519 22.6176 12.9101 23.4785 13.4708 24.2034C14.0315 24.9283 14.7747 25.4914 15.6244 25.8349C15.8315 25.9236 16.0474 25.9904 16.2684 26.0343C15.6395 26.1582 14.9944 26.1774 14.3592 26.0913C14.2225 26.0628 14.1712 26.1369 14.2225 26.268C15.0602 28.5476 16.8782 29.2428 18.2117 29.6304C18.3941 29.6589 18.5765 29.6589 18.7816 29.7045C18.7816 29.7045 18.7816 29.7045 18.7474 29.7387C18.3542 30.4567 16.7642 30.9411 16.0347 31.1919C14.7033 31.6701 13.2837 31.8529 11.8745 31.7276C11.6523 31.6934 11.601 31.6991 11.544 31.7276C11.487 31.7561 11.544 31.8188 11.6067 31.8758C11.8916 32.0638 12.1766 32.2291 12.4729 32.3887C13.3551 32.8699 14.2878 33.2521 15.254 33.5284C20.2577 34.9076 25.8882 33.8932 29.6438 30.1604C32.5959 27.2311 33.6331 23.1906 33.6331 19.1443C33.6331 18.9904 33.8211 18.8993 33.9294 18.8195C34.6763 18.2376 35.3347 17.5503 35.8842 16.7793C35.9793 16.6643 36.0281 16.518 36.0209 16.3689C36.0209 16.2834 36.0209 16.3005 35.9126 16.3461Z" fill="#33CCFF"/>
</g>
<defs>
<clipPath id="clip0_602_6038">
<rect width="48" height="48" rx="24" fill="white"/>
</clipPath>
</defs>
</svg>
