<svg width="49" height="48" viewBox="0 0 49 48" fill="none" xmlns="http://www.w3.org/2000/svg">
<g clip-path="url(#clip0_602_6045)">
<rect x="0.333313" width="48" height="48" fill="#ECFFF5"/>
<path d="M12.3334 35.041L14.0554 28.6441C12.6667 26.1522 12.2255 23.2443 12.8127 20.4541C13.4 17.6639 14.9763 15.1785 17.2524 13.454C19.5286 11.7295 22.3519 10.8816 25.2042 11.0658C28.0565 11.25 30.7466 12.4541 32.7807 14.457C34.8149 16.4598 36.0567 19.1273 36.2783 21.9697C36.4999 24.8122 35.6864 27.639 33.9871 29.9315C32.2878 32.2239 29.8167 33.8283 27.0272 34.4501C24.2377 35.0719 21.3169 34.6695 18.8009 33.3167L12.3334 35.041ZM19.1127 30.9229L19.5127 31.1596C21.3351 32.237 23.4637 32.6829 25.5667 32.4277C27.6697 32.1725 29.629 31.2306 31.1392 29.7487C32.6495 28.2669 33.6259 26.3283 33.9163 24.2351C34.2067 22.142 33.7947 20.0118 32.7446 18.1765C31.6945 16.3413 30.0653 14.9041 28.1108 14.0889C26.1563 13.2736 23.9863 13.1262 21.9391 13.6696C19.8918 14.2129 18.0822 15.4165 16.7924 17.0927C15.5025 18.769 14.8047 20.8238 14.8079 22.9369C14.8062 24.689 15.292 26.4072 16.2112 27.9003L16.462 28.3128L15.4994 31.8831L19.1127 30.9229Z" fill="#00D95F"/>
<path fill-rule="evenodd" clip-rule="evenodd" d="M28.8208 24.5785C28.5863 24.3899 28.3118 24.2571 28.018 24.1903C27.7243 24.1235 27.4192 24.1245 27.1259 24.1931C26.6853 24.3757 26.4006 25.0654 26.1158 25.4103C26.0558 25.4929 25.9676 25.5509 25.8677 25.5733C25.7679 25.5957 25.6632 25.581 25.5735 25.532C23.9602 24.9017 22.608 23.7459 21.7364 22.2524C21.6621 22.1592 21.6269 22.0408 21.6383 21.9223C21.6496 21.8037 21.7067 21.6942 21.7974 21.6167C22.115 21.3032 22.3481 20.9148 22.4753 20.4875C22.5036 20.0162 22.3953 19.5467 22.1635 19.1351C21.9843 18.558 21.6432 18.0441 21.1805 17.6542C20.9419 17.5471 20.6773 17.5112 20.4186 17.5508C20.16 17.5904 19.9184 17.7038 19.7229 17.8773C19.3836 18.1693 19.1143 18.5335 18.9348 18.9431C18.7553 19.3527 18.6701 19.7973 18.6857 20.244C18.6868 20.4949 18.7186 20.7447 18.7806 20.9879C18.938 21.572 19.1801 22.1302 19.4992 22.6446C19.7294 23.0386 19.9806 23.4201 20.2517 23.7874C21.1327 24.9937 22.2402 26.0179 23.5126 26.8032C24.1511 27.2023 24.8335 27.5268 25.5464 27.7702C26.2869 28.105 27.1045 28.2336 27.9123 28.1421C28.3726 28.0726 28.8088 27.8914 29.1823 27.6143C29.5559 27.3372 29.8554 26.9727 30.0546 26.553C30.1716 26.2995 30.2072 26.0161 30.1563 25.7416C30.0343 25.1803 29.2818 24.849 28.8208 24.5785Z" fill="#00D95F"/>
</g>
<defs>
<clipPath id="clip0_602_6045">
<rect x="0.333313" width="48" height="48" rx="24" fill="white"/>
</clipPath>
</defs>
</svg>
