<svg width="41" height="41" viewBox="0 0 41 41" fill="none" xmlns="http://www.w3.org/2000/svg">
<g id="Group">
<path id="Vector" d="M31.369 21.5707C31.1138 24.044 30.0179 26.3548 28.2643 28.1174C26.5106 29.8799 24.2053 30.9875 21.7334 31.2552C21.6837 31.2546 21.6343 31.2639 21.5882 31.2827C21.5421 31.3015 21.5002 31.3293 21.465 31.3645C21.4298 31.3997 21.402 31.4416 21.3832 31.4877C21.3644 31.5338 21.3551 31.5832 21.3557 31.633V39.7174C21.3557 39.9178 21.2761 40.11 21.1344 40.2517C20.9927 40.3934 20.8005 40.473 20.6001 40.473C20.3997 40.473 20.2075 40.3934 20.0658 40.2517C19.9241 40.11 19.8445 39.9178 19.8445 39.7174V36.7841C19.8373 36.6863 19.7952 36.5943 19.7259 36.5249C19.6565 36.4556 19.5646 36.4135 19.4668 36.4063C16.1064 36.1343 12.9189 34.8032 10.3632 32.6045C7.80746 30.4058 6.01526 27.4528 5.24454 24.1707C5.21585 24.0735 5.20703 23.9715 5.2186 23.8707C5.23016 23.77 5.26188 23.6727 5.31187 23.5844C5.36185 23.4962 5.42908 23.419 5.50954 23.3573C5.59 23.2956 5.68206 23.2508 5.78022 23.2254C5.87838 23.2 5.98065 23.1947 6.08092 23.2097C6.18119 23.2247 6.27742 23.2597 6.36388 23.3126C6.45033 23.3656 6.52525 23.4354 6.58415 23.5179C6.64306 23.6005 6.68476 23.694 6.70676 23.793C7.39195 26.739 8.98962 29.3936 11.2721 31.3784C13.5545 33.3632 16.4052 34.5768 19.4179 34.8463C19.5157 34.8952 19.609 34.8463 19.7023 34.753C19.7517 34.7251 19.7916 34.6831 19.8169 34.6325C19.8422 34.5818 19.8519 34.5247 19.8445 34.4685V31.633C19.8451 31.5832 19.8358 31.5338 19.817 31.4877C19.7982 31.4416 19.7704 31.3997 19.7352 31.3645C19.7 31.3293 19.6581 31.3015 19.612 31.2827C19.5659 31.2639 19.5165 31.2546 19.4668 31.2552C17.0066 30.9811 14.711 29.8849 12.9512 28.1441C11.1918 26.3758 10.0935 24.0567 9.8401 21.5752C9.82568 21.4844 9.78008 21.4014 9.71114 21.3406C9.6422 21.2798 9.55422 21.2448 9.46232 21.2418H1.37788C1.1716 21.2418 0.973765 21.1599 0.827904 21.014C0.682042 20.8682 0.600098 20.6703 0.600098 20.4641C0.600098 20.2578 0.682042 20.06 0.827904 19.9141C0.973765 19.7682 1.1716 19.6863 1.37788 19.6863H4.44899C4.54063 19.6825 4.62817 19.6473 4.69695 19.5866C4.76573 19.5259 4.81156 19.4434 4.82676 19.353C5.02844 15.9976 6.27514 12.7894 8.39208 10.1783C10.509 7.56722 13.39 5.68409 16.6312 4.79296C16.8275 4.7557 17.0306 4.79496 17.1988 4.90268C17.3671 5.0104 17.4878 5.17841 17.5361 5.37226C17.5844 5.56612 17.5567 5.77111 17.4587 5.9452C17.3607 6.11929 17.1998 6.24928 17.009 6.30851C14.1093 7.09043 11.5261 8.75836 9.62019 11.0794C7.71427 13.4005 6.58074 16.2587 6.37788 19.2552C6.36534 19.3104 6.36584 19.3677 6.37933 19.4227C6.39282 19.4777 6.41893 19.5288 6.45559 19.5719C6.49225 19.615 6.53846 19.649 6.59054 19.6712C6.64262 19.6934 6.69915 19.7031 6.75565 19.6996H9.44454C9.53644 19.6966 9.62442 19.6617 9.69336 19.6009C9.76231 19.54 9.80791 19.4571 9.82232 19.3663C10.074 16.8885 11.1695 14.5725 12.9253 12.8062C14.6811 11.0398 16.9905 9.93053 19.4668 9.66407C19.5165 9.66466 19.5659 9.6553 19.612 9.63653C19.6581 9.61775 19.7 9.58995 19.7352 9.55475C19.7704 9.51955 19.7982 9.47766 19.817 9.43156C19.8358 9.38546 19.8451 9.33607 19.8445 9.28629V1.20184C19.8445 1.00146 19.9241 0.80928 20.0658 0.667586C20.2075 0.525892 20.3997 0.446289 20.6001 0.446289C20.8005 0.446289 20.9927 0.525892 21.1344 0.667586C21.2761 0.80928 21.3557 1.00146 21.3557 1.20184V10.3707C21.3607 10.4777 21.3434 10.5846 21.3048 10.6845C21.2661 10.7844 21.2071 10.8751 21.1313 10.9508C21.0556 11.0266 20.9649 11.0857 20.865 11.1243C20.7651 11.1629 20.6582 11.1803 20.5512 11.1752C12.3334 11.1752 8.22676 21.2374 14.0357 27.0507C19.8445 32.8641 29.7601 28.7041 29.9023 20.4596C29.9011 20.3601 29.9199 20.2613 29.9574 20.1691C29.995 20.0769 30.0506 19.9931 30.121 19.9227C30.1914 19.8523 30.2751 19.7967 30.3673 19.7591C30.4595 19.7216 30.5583 19.7029 30.6579 19.7041H39.8223C40.0286 19.7041 40.2264 19.786 40.3723 19.9319C40.5182 20.0777 40.6001 20.2756 40.6001 20.4818C40.6001 20.6881 40.5182 20.886 40.3723 21.0318C40.2264 21.1777 40.0286 21.2596 39.8223 21.2596H36.8001C36.7063 21.2559 36.6147 21.2884 36.5443 21.3505C36.474 21.4126 36.4303 21.4994 36.4223 21.593C36.177 24.9693 34.8713 28.1818 32.6915 30.7718C30.5118 33.3618 27.5694 35.197 24.2845 36.0152C23.2934 36.2507 22.9512 34.7396 23.9512 34.5041C26.8847 33.7747 29.5155 32.1434 31.473 29.8399C33.4304 27.5364 34.6159 24.6769 34.8623 21.6641C34.8749 21.6089 34.8744 21.5515 34.8609 21.4965C34.8474 21.4416 34.8213 21.3905 34.7846 21.3473C34.7479 21.3042 34.7017 21.2702 34.6497 21.248C34.5976 21.2259 34.541 21.2161 34.4845 21.2196H31.7468C31.6549 21.2226 31.5669 21.2575 31.4979 21.3184C31.429 21.3792 31.3834 21.4621 31.369 21.553V21.5707ZM37.489 9.00184L32.0268 14.433C31.8933 14.5778 31.708 14.6641 31.5112 14.673H27.8712C27.7718 14.6817 27.6759 14.7136 27.5912 14.7663L21.1201 21.2863C20.9746 21.4222 20.782 21.4964 20.5829 21.4933C20.3838 21.4901 20.1937 21.4098 20.0526 21.2693C19.9115 21.1287 19.8304 20.939 19.8264 20.7399C19.8225 20.5408 19.8959 20.3479 20.0312 20.2018L26.5023 13.6774C26.5459 13.6556 26.5823 13.6219 26.6075 13.5802C26.6327 13.5385 26.6455 13.4905 26.6445 13.4418V9.79296C26.6436 9.68784 26.664 9.58362 26.7045 9.48661C26.745 9.38959 26.8047 9.30179 26.8801 9.22851L32.3112 3.80184C32.4161 3.68847 32.5527 3.6093 32.7032 3.57465C32.8537 3.54001 33.0111 3.55149 33.155 3.60761C33.2989 3.66372 33.4226 3.76187 33.5099 3.88927C33.5972 4.01666 33.6441 4.1674 33.6445 4.32184V7.29962C33.6508 7.39775 33.6926 7.49024 33.7622 7.55977C33.8317 7.6293 33.9242 7.67112 34.0223 7.6774H36.9512C37.1074 7.6733 37.2613 7.71636 37.3927 7.80097C37.5241 7.88557 37.6269 8.00779 37.6878 8.1517C37.7488 8.29561 37.7649 8.45454 37.7342 8.60777C37.7035 8.761 37.6273 8.90142 37.5157 9.01073L37.489 9.00184ZM31.2668 13.0018L34.4312 9.8374C34.4862 9.7866 34.525 9.72078 34.543 9.6481C34.5609 9.57542 34.557 9.49909 34.5319 9.42856C34.5069 9.35804 34.4616 9.29643 34.4018 9.25139C34.3421 9.20634 34.2704 9.17984 34.1957 9.17518H32.8623C32.6559 9.18 32.4559 9.10349 32.3054 8.96213C32.1549 8.82078 32.066 8.62593 32.0579 8.41962V7.12629C32.0575 7.04975 32.0347 6.97499 31.9922 6.9113C31.9498 6.8476 31.8896 6.79776 31.8191 6.76795C31.7486 6.73814 31.6709 6.72967 31.5956 6.7436C31.5203 6.75752 31.4508 6.79323 31.3957 6.84629L28.2845 10.0107C28.2015 10.0831 28.1504 10.1853 28.1423 10.2952V12.753C28.1417 12.8027 28.1511 12.8521 28.1699 12.8982C28.1886 12.9443 28.2164 12.9862 28.2516 13.0214C28.2868 13.0566 28.3287 13.0844 28.3748 13.1032C28.4209 13.122 28.4703 13.1313 28.5201 13.1307H31.0223C31.1201 13.1307 31.2134 13.1307 31.2579 13.033L31.2668 13.0018ZM27.0179 20.4685C27.0196 21.7393 26.6444 22.982 25.9396 24.0394C25.2347 25.0968 24.2321 25.9213 23.0585 26.4086C21.8849 26.8959 20.5931 27.0241 19.3466 26.777C18.1001 26.5298 16.9549 25.9184 16.056 25.0202C15.1572 24.1219 14.545 22.9772 14.2969 21.7309C14.0489 20.4845 14.1762 19.1926 14.6627 18.0187C15.1492 16.8447 15.9731 15.8415 17.03 15.136C18.0869 14.4304 19.3293 14.0543 20.6001 14.0552C20.791 14.0698 20.9694 14.156 21.0996 14.2965C21.2297 14.437 21.302 14.6214 21.302 14.813C21.302 15.0045 21.2297 15.1889 21.0996 15.3294C20.9694 15.4699 20.791 15.5561 20.6001 15.5707C19.3035 15.5707 18.06 16.0858 17.1431 17.0027C16.2263 17.9195 15.7112 19.163 15.7112 20.4596C15.7112 21.7562 16.2263 22.9997 17.1431 23.9166C18.06 24.8334 19.3035 25.3485 20.6001 25.3485C23.4357 25.3485 25.3245 23.2241 25.4623 20.4596C25.4579 20.3524 25.4756 20.2454 25.5143 20.1453C25.5529 20.0452 25.6118 19.9541 25.6872 19.8777C25.7626 19.8014 25.8529 19.7413 25.9525 19.7014C26.0521 19.6614 26.1589 19.6423 26.2662 19.6454C26.3734 19.6484 26.4789 19.6735 26.5761 19.7191C26.6732 19.7647 26.76 19.8298 26.8309 19.9103C26.9018 19.9909 26.9554 20.0851 26.9884 20.1873C27.0213 20.2894 27.0329 20.3973 27.0223 20.5041L27.0179 20.4685Z" fill="white"/>
</g>
</svg>
