<svg width="150" height="164" viewBox="0 0 150 164" fill="none" xmlns="http://www.w3.org/2000/svg">
<g id="Group" opacity="0.5">
<path id="Vector" d="M144.614 74.2351C143.415 85.8593 138.264 96.7202 130.022 105.004C121.779 113.288 110.945 118.494 99.3267 119.752C99.0927 119.749 98.8606 119.793 98.6439 119.881C98.4272 119.97 98.2303 120.1 98.0649 120.266C97.8995 120.431 97.7688 120.628 97.6806 120.845C97.5923 121.061 97.5483 121.294 97.5511 121.528V159.524C97.5511 160.466 97.177 161.369 96.511 162.035C95.845 162.701 94.9418 163.076 94 163.076C93.0582 163.076 92.155 162.701 91.489 162.035C90.823 161.369 90.4489 160.466 90.4489 159.524V145.738C90.4151 145.278 90.2171 144.846 89.8912 144.52C89.5653 144.194 89.133 143.996 88.6733 143.962C72.8795 142.684 57.8985 136.428 45.8865 126.094C33.8746 115.76 25.4512 101.881 21.8289 86.4551C21.6941 85.998 21.6526 85.5185 21.7069 85.0451C21.7613 84.5717 21.9104 84.1141 22.1453 83.6995C22.3802 83.2849 22.6962 82.9219 23.0744 82.632C23.4525 82.3421 23.8852 82.1312 24.3466 82.012C24.8079 81.8928 25.2886 81.8677 25.7599 81.9382C26.2311 82.0086 26.6834 82.1732 27.0898 82.4221C27.4961 82.671 27.8482 82.9991 28.1251 83.3869C28.4019 83.7748 28.5979 84.2144 28.7013 84.6795C31.9217 98.526 39.4308 111.003 50.1582 120.331C60.8857 129.659 74.284 135.363 88.4436 136.63C88.9031 136.86 89.3418 136.63 89.7804 136.192C90.0123 136.061 90.1999 135.863 90.319 135.625C90.438 135.387 90.4833 135.119 90.4489 134.855V121.528C90.4517 121.294 90.4077 121.061 90.3194 120.845C90.2312 120.628 90.1005 120.431 89.9351 120.266C89.7697 120.1 89.5728 119.97 89.3561 119.881C89.1394 119.793 88.9073 119.749 88.6733 119.752C77.1107 118.464 66.321 113.312 58.0502 105.13C49.7811 96.819 44.6188 85.9191 43.428 74.256C43.3603 73.8292 43.1459 73.4393 42.8219 73.1534C42.4979 72.8675 42.0844 72.7034 41.6524 72.6893H3.65556C2.68604 72.6893 1.75624 72.3042 1.07069 71.6186C0.385138 70.9331 0 70.0033 0 69.0337C0 68.0642 0.385138 67.1344 1.07069 66.4489C1.75624 65.7633 2.68604 65.3782 3.65556 65.3782H18.0898C18.5205 65.3602 18.932 65.1947 19.2552 64.9095C19.5785 64.6243 19.7939 64.2366 19.8653 63.8115C20.8132 48.0412 26.6727 32.9629 36.6223 20.6908C46.5719 8.41857 60.1127 -0.432144 75.3462 -4.62047C76.2687 -4.79558 77.2233 -4.61107 78.0141 -4.10479C78.8049 -3.59851 79.372 -2.80883 79.5991 -1.89772C79.8262 -0.98662 79.6961 -0.0231495 79.2355 0.795076C78.7748 1.6133 78.0185 2.22426 77.1218 2.50264C63.4931 6.17768 51.3522 14.0169 42.3944 24.9259C33.4366 35.8348 28.109 49.2687 27.1556 63.352C27.0967 63.6114 27.099 63.881 27.1624 64.1394C27.2258 64.3978 27.3485 64.6378 27.5208 64.8406C27.6931 65.0433 27.9103 65.2031 28.1551 65.3073C28.3999 65.4115 28.6656 65.4572 28.9311 65.4409H41.5689C42.0008 65.4268 42.4143 65.2627 42.7383 64.9768C43.0624 64.6909 43.2767 64.301 43.3444 63.8742C44.5273 52.2287 49.6761 41.3433 57.9284 33.0416C66.1806 24.7399 77.0351 19.5261 88.6733 18.2738C88.9073 18.2766 89.1394 18.2325 89.3561 18.1443C89.5728 18.0561 89.7697 17.9254 89.9351 17.7599C90.1005 17.5945 90.2312 17.3977 90.3194 17.181C90.4077 16.9643 90.4517 16.7321 90.4489 16.4982V-21.4987C90.4489 -22.4405 90.823 -23.3437 91.489 -24.0097C92.155 -24.6757 93.0582 -25.0498 94 -25.0498C94.9418 -25.0498 95.845 -24.6757 96.511 -24.0097C97.177 -23.3437 97.5511 -22.4405 97.5511 -21.4987V21.5951C97.575 22.0979 97.4935 22.6002 97.3119 23.0697C97.1303 23.5392 96.8527 23.9656 96.4967 24.3216C96.1408 24.6775 95.7144 24.9552 95.2448 25.1368C94.7753 25.3183 94.2731 25.3998 93.7702 25.376C55.1467 25.376 35.8453 72.6684 63.1471 99.9911C90.4489 127.314 137.052 107.762 137.72 69.0129C137.715 68.545 137.803 68.0807 137.979 67.6473C138.156 67.2139 138.417 66.8202 138.748 66.4894C139.079 66.1585 139.473 65.8971 139.906 65.7206C140.339 65.5442 140.804 65.4561 141.272 65.4617H184.344C185.314 65.4617 186.244 65.8469 186.929 66.5324C187.615 67.218 188 68.1478 188 69.1173C188 70.0868 187.615 71.0166 186.929 71.7022C186.244 72.3877 185.314 72.7729 184.344 72.7729H170.14C169.699 72.7551 169.269 72.9081 168.938 73.2C168.607 73.4918 168.402 73.9 168.364 74.3395C167.212 90.2082 161.075 105.307 150.83 117.48C140.585 129.653 126.756 138.278 111.317 142.124C106.659 143.231 105.05 136.129 109.75 135.022C123.538 131.594 135.903 123.926 145.103 113.1C154.303 102.274 159.874 88.8338 161.032 74.6737C161.091 74.4143 161.089 74.1447 161.026 73.8863C160.962 73.6279 160.839 73.3879 160.667 73.1852C160.495 72.9825 160.278 72.8227 160.033 72.7185C159.788 72.6143 159.522 72.5685 159.257 72.5849H146.389C145.957 72.5989 145.544 72.763 145.22 73.049C144.896 73.3349 144.682 73.7247 144.614 74.1515V74.2351ZM173.378 15.1613L147.705 40.6875C147.078 41.3684 146.207 41.7739 145.282 41.8155H128.174C127.707 41.8565 127.256 42.0067 126.858 42.2542L96.444 72.8982C95.7601 73.5371 94.855 73.8859 93.9192 73.8709C92.9834 73.856 92.0899 73.4786 91.4268 72.8182C90.7636 72.1577 90.3826 71.2658 90.3638 70.33C90.3451 69.3943 90.6901 68.4878 91.3262 67.8013L121.74 37.1364C121.945 37.0339 122.116 36.8754 122.235 36.6795C122.353 36.4836 122.413 36.2581 122.409 36.0293V18.8795C122.405 18.3855 122.5 17.8957 122.691 17.4397C122.881 16.9837 123.162 16.5711 123.516 16.2266L149.042 -9.27869C149.535 -9.81157 150.177 -10.1837 150.884 -10.3465C151.592 -10.5093 152.332 -10.4554 153.008 -10.1916C153.684 -9.92786 154.266 -9.46657 154.676 -8.86781C155.086 -8.26905 155.307 -7.56058 155.309 -6.8347V7.16086C155.338 7.62208 155.535 8.05675 155.862 8.38354C156.189 8.71034 156.623 8.90689 157.084 8.93642H170.85C171.584 8.91717 172.307 9.11954 172.925 9.51718C173.543 9.91481 174.026 10.4893 174.312 11.1656C174.599 11.842 174.675 12.589 174.53 13.3091C174.386 14.0293 174.028 14.6893 173.503 15.2031L173.378 15.1613ZM144.133 33.9613L159.006 19.0884C159.265 18.8497 159.447 18.5403 159.531 18.1987C159.616 17.8571 159.598 17.4983 159.48 17.1669C159.362 16.8354 159.149 16.5459 158.868 16.3342C158.587 16.1224 158.25 15.9979 157.899 15.976H151.632C150.662 15.9987 149.722 15.639 149.015 14.9747C148.307 14.3103 147.89 13.3945 147.852 12.4249V6.3462C147.85 5.98644 147.743 5.63511 147.543 5.33573C147.344 5.03636 147.061 4.8021 146.729 4.662C146.398 4.5219 146.033 4.4821 145.679 4.54755C145.325 4.613 144.998 4.78082 144.739 5.0302L130.117 19.9031C129.727 20.2432 129.486 20.7236 129.448 21.24V32.7915C129.446 33.0255 129.49 33.2576 129.578 33.4743C129.666 33.691 129.797 33.8878 129.962 34.0533C130.128 34.2187 130.325 34.3494 130.541 34.4376C130.758 34.5259 130.99 34.5699 131.224 34.5671H142.984C143.444 34.5671 143.883 34.5671 144.092 34.1075L144.133 33.9613ZM124.164 69.0546C124.172 75.0272 122.408 80.868 119.095 85.8378C115.783 90.8075 111.07 94.6828 105.554 96.9732C100.038 99.2636 93.9669 99.8661 88.1084 98.7044C82.2498 97.5428 76.8676 94.6692 72.6429 90.4474C68.4182 86.2256 65.5409 80.8454 64.3752 74.9877C63.2095 69.13 63.8078 63.0581 66.0943 57.5405C68.3809 52.023 72.2529 47.3078 77.2204 43.9917C82.1879 40.6757 88.0274 38.9078 94 38.912C94.8975 38.9808 95.7359 39.3858 96.3476 40.0462C96.9592 40.7065 97.299 41.5734 97.299 42.4735C97.299 43.3736 96.9592 44.2405 96.3476 44.9009C95.7359 45.5612 94.8975 45.9663 94 46.0351C87.9059 46.0351 82.0614 48.4559 77.7523 52.7651C73.4431 57.0743 71.0222 62.9188 71.0222 69.0129C71.0222 75.1069 73.4431 80.9514 77.7523 85.2606C82.0614 89.5698 87.9059 91.9906 94 91.9906C107.327 91.9906 116.205 82.0057 116.852 69.0129C116.832 68.5089 116.915 68.006 117.097 67.5355C117.278 67.065 117.555 66.637 117.909 66.2781C118.264 65.9191 118.688 65.6369 119.156 65.449C119.624 65.2612 120.126 65.1716 120.63 65.186C121.135 65.2003 121.63 65.3183 122.087 65.5325C122.544 65.7467 122.951 66.0527 123.285 66.4312C123.618 66.8097 123.87 67.2528 124.025 67.7329C124.18 68.213 124.234 68.7198 124.184 69.2217L124.164 69.0546Z" fill="#BE108F"/>
</g>
</svg>
