<svg width="42" height="38" viewBox="0 0 42 38" fill="none" xmlns="http://www.w3.org/2000/svg">
<path d="M28.9936 15.8456C28.0077 15.8456 27.2085 15.0463 27.2085 14.0605C27.2085 13.3207 27.6585 12.686 28.2997 12.4153C26.5089 10.4077 23.9023 9.14355 21.0003 9.14355C15.5997 9.14355 11.2217 13.5216 11.2217 18.9222C11.2217 24.3227 15.5996 28.7007 21.0002 28.7007C26.4008 28.7007 30.7788 24.3227 30.7788 18.9221C30.7788 17.6922 30.5518 16.5154 30.1373 15.4312C29.8166 15.6995 29.4117 15.8462 28.9936 15.8456Z" stroke="white" stroke-width="1.62602" stroke-miterlimit="10" stroke-linecap="round" stroke-linejoin="round"/>
<path d="M41 18.9222C41 18.9222 32.0457 32.3757 21 32.3757C9.95431 32.3757 1 18.9222 1 18.9222C1 18.9222 9.95431 5.46875 21 5.46875C32.0457 5.46875 41 18.9222 41 18.9222Z" stroke="white" stroke-width="1.62602" stroke-miterlimit="10" stroke-linecap="round" stroke-linejoin="round"/>
<path d="M21.0002 22.9682C23.2348 22.9682 25.0463 21.1567 25.0463 18.9221C25.0463 16.6875 23.2348 14.876 21.0002 14.876C18.7656 14.876 16.9541 16.6875 16.9541 18.9221C16.9541 21.1567 18.7656 22.9682 21.0002 22.9682Z" stroke="white" stroke-width="1.62602" stroke-miterlimit="10" stroke-linecap="round" stroke-linejoin="round"/>
<path d="M21 14.0608V15.6799M21 22.1651V23.7842M25.8617 18.9225H24.2426M17.7574 18.9225H16.1383M21 1V2.28699M21 35.558V36.845M8.3269 6.24943L9.2369 7.15943M32.7631 30.6856L33.6731 31.5956M33.6731 6.24943L32.7631 7.15943M9.2369 30.6856L8.3269 31.5956" stroke="white" stroke-width="1.62602" stroke-miterlimit="10" stroke-linecap="round" stroke-linejoin="round"/>
</svg>
