<svg width="148" height="151" viewBox="0 0 148 151" fill="none" xmlns="http://www.w3.org/2000/svg">
<g id="Group">
<path id="Vector" d="M126.4 55.1806C122.081 55.1806 118.58 51.6791 118.58 47.3601C118.58 44.1193 120.551 41.3386 123.36 40.1525C115.515 31.3575 104.095 25.8193 91.3817 25.8193C67.722 25.8193 48.542 44.9994 48.542 68.659C48.542 92.3186 67.7217 111.498 91.3813 111.498C115.041 111.498 134.221 92.3183 134.221 68.6586C134.221 63.2704 133.226 58.1151 131.41 53.3652C130.006 54.5406 128.232 55.1834 126.4 55.1806Z" stroke="#BE108F" stroke-width="6" stroke-miterlimit="10" stroke-linecap="round" stroke-linejoin="round"/>
<path id="Vector_2" d="M179 68.6589C179 68.6589 139.771 127.598 91.3808 127.598C42.9901 127.598 3.76172 68.6589 3.76172 68.6589C3.76172 68.6589 42.9901 9.71973 91.3808 9.71973C139.771 9.71973 179 68.6589 179 68.6589Z" stroke="#BE108F" stroke-width="6" stroke-miterlimit="10" stroke-linecap="round" stroke-linejoin="round"/>
<path id="Vector_3" d="M91.382 86.3841C101.172 86.3841 109.108 78.448 109.108 68.6584C109.108 58.8687 101.172 50.9326 91.382 50.9326C81.5923 50.9326 73.6562 58.8687 73.6562 68.6584C73.6562 78.448 81.5923 86.3841 91.382 86.3841Z" stroke="#BE108F" stroke-width="6" stroke-miterlimit="10" stroke-linecap="round" stroke-linejoin="round"/>
<path id="Vector_4" d="M91.3815 47.3614V54.4546M91.3815 82.866V89.9592M112.68 68.6603H105.587M77.1758 68.6603H70.0826M91.3815 -9.85742V-4.21917M91.3815 141.54V147.178M35.8613 13.1401L39.848 17.1268M142.915 120.194L146.902 124.18M146.902 13.1401L142.915 17.1268M39.848 120.194L35.8613 124.18" stroke="#BE108F" stroke-width="6" stroke-miterlimit="10" stroke-linecap="round" stroke-linejoin="round"/>
</g>
</svg>
