<svg width="103" height="115" viewBox="0 0 103 115" fill="none" xmlns="http://www.w3.org/2000/svg">
<g id="Group" opacity="0.5">
<path id="Vector" d="M136.125 46.9319H109.762V-16.9463C109.762 -21.2885 106.23 -24.8213 101.887 -24.8213H7.87498C3.53277 -24.8213 0 -21.2885 0 -16.9463V94.7103C0 105.39 8.68892 114.079 19.3688 114.079H124.631C135.311 114.079 144 105.39 144 94.7103V54.8066C144 50.4647 140.467 46.9319 136.125 46.9319ZM19.3688 109.579C11.1701 109.579 4.49999 102.909 4.49999 94.7106V-16.9463C4.49999 -18.8073 6.01396 -20.3213 7.87498 -20.3213H101.887C103.748 -20.3213 105.262 -18.8073 105.262 -16.9463V94.7103C105.262 100.678 107.977 106.023 112.235 109.579H19.3688V109.579ZM139.5 94.7106C139.5 102.909 132.83 109.579 124.631 109.579C116.432 109.579 109.762 102.909 109.762 94.7106V51.4319H136.125C137.986 51.4319 139.5 52.9459 139.5 54.8069V94.7106ZM92.2872 51.6603C92.2872 52.257 92.0502 52.8293 91.6282 53.2513C91.2063 53.6732 90.634 53.9103 90.0372 53.9103H19.7249C19.1281 53.9103 18.5558 53.6732 18.1339 53.2513C17.7119 52.8293 17.4749 52.257 17.4749 51.6603C17.4749 51.0636 17.7119 50.4913 18.1339 50.0693C18.5558 49.6473 19.1281 49.4103 19.7249 49.4103H90.0372C90.634 49.4103 91.2063 49.6473 91.6282 50.0693C92.0502 50.4913 92.2872 51.0636 92.2872 51.6603ZM92.2872 65.7228C92.2872 66.3195 92.0502 66.8918 91.6282 67.3138C91.2063 67.7357 90.634 67.9728 90.0372 67.9728H19.7249C19.1281 67.9728 18.5558 67.7357 18.1339 67.3138C17.7119 66.8918 17.4749 66.3195 17.4749 65.7228C17.4749 65.126 17.7119 64.5537 18.1339 64.1318C18.5558 63.7098 19.1281 63.4728 19.7249 63.4728H90.0372C90.634 63.4728 91.2063 63.7098 91.6282 64.1318C92.0502 64.5537 92.2872 65.126 92.2872 65.7228ZM92.2872 93.8477C92.2872 94.4445 92.0502 95.0167 91.6282 95.4387C91.2063 95.8607 90.634 96.0977 90.0372 96.0977H19.7249C19.1281 96.0977 18.5558 95.8607 18.1339 95.4387C17.7119 95.0167 17.4749 94.4445 17.4749 93.8477C17.4749 93.251 17.7119 92.6787 18.1339 92.2567C18.5558 91.8348 19.1281 91.5977 19.7249 91.5977H90.0372C90.634 91.5977 91.2063 91.8348 91.6282 92.2567C92.0502 92.6787 92.2872 93.251 92.2872 93.8477ZM92.2872 79.7852C92.2872 80.382 92.0502 80.9543 91.6282 81.3762C91.2063 81.7982 90.634 82.0352 90.0372 82.0352H19.7249C19.1281 82.0352 18.5558 81.7982 18.1339 81.3762C17.7119 80.9543 17.4749 80.382 17.4749 79.7852C17.4749 79.1885 17.7119 78.6162 18.1339 78.1943C18.5558 77.7723 19.1281 77.5352 19.7249 77.5352H90.0372C90.634 77.5352 91.2063 77.7723 91.6282 78.1943C92.0502 78.6162 92.2872 79.1885 92.2872 79.7852ZM92.2872 37.5978C92.2872 38.1946 92.0502 38.7668 91.6282 39.1888C91.2063 39.6108 90.634 39.8478 90.0372 39.8478H19.7249C19.1281 39.8478 18.5558 39.6108 18.1339 39.1888C17.7119 38.7668 17.4749 38.1946 17.4749 37.5978C17.4749 37.0011 17.7119 36.4288 18.1339 36.0068C18.5558 35.5849 19.1281 35.3478 19.7249 35.3478H90.0372C90.634 35.3478 91.2063 35.5849 91.6282 36.0068C92.0502 36.4288 92.2872 37.0011 92.2872 37.5978ZM92.2872 -4.58961C92.2872 -3.99287 92.0502 -3.42058 91.6282 -2.99862C91.2063 -2.57666 90.634 -2.33961 90.0372 -2.33961H19.7249C19.1281 -2.33961 18.5558 -2.57666 18.1339 -2.99862C17.7119 -3.42058 17.4749 -3.99287 17.4749 -4.58961C17.4749 -5.18634 17.7119 -5.75864 18.1339 -6.18059C18.5558 -6.60255 19.1281 -6.8396 19.7249 -6.8396H90.0372C90.634 -6.8396 91.2063 -6.60255 91.6282 -6.18059C92.0502 -5.75864 92.2872 -5.18634 92.2872 -4.58961ZM92.2872 23.5353C92.2872 24.1321 92.0502 24.7044 91.6282 25.1263C91.2063 25.5483 90.634 25.7853 90.0372 25.7853H19.7249C19.1281 25.7853 18.5558 25.5483 18.1339 25.1263C17.7119 24.7044 17.4749 24.1321 17.4749 23.5353C17.4749 22.9386 17.7119 22.3663 18.1339 21.9444C18.5558 21.5224 19.1281 21.2853 19.7249 21.2853H90.0372C90.634 21.2853 91.2063 21.5224 91.6282 21.9444C92.0502 22.3663 92.2872 22.9386 92.2872 23.5353ZM92.2872 9.47287C92.2872 10.0696 92.0502 10.6419 91.6282 11.0639C91.2063 11.4858 90.634 11.7229 90.0372 11.7229H19.7249C19.1281 11.7229 18.5558 11.4858 18.1339 11.0639C17.7119 10.6419 17.4749 10.0696 17.4749 9.47287C17.4749 8.87613 17.7119 8.30384 18.1339 7.88188C18.5558 7.45992 19.1281 7.22287 19.7249 7.22287H90.0372C90.634 7.22287 91.2063 7.45992 91.6282 7.88188C92.0502 8.30384 92.2872 8.87613 92.2872 9.47287Z" fill="#BE108F"/>
</g>
</svg>
