<svg width="42" height="40" viewBox="0 0 42 40" fill="none" xmlns="http://www.w3.org/2000/svg">
<g id="Group">
<path id="Vector" d="M39.2007 20.6632H31.6089V2.26781C31.6089 1.01735 30.5916 0 29.3411 0H2.26781C1.01735 0 0 1.01735 0 2.26781V34.4222C0 37.4978 2.5022 40 5.57775 40H35.8908C38.9664 40 41.4686 37.4978 41.4686 34.4222V22.9309C41.4685 21.6806 40.4511 20.6632 39.2007 20.6632ZM5.57775 38.7042C3.21672 38.7042 1.29589 36.7834 1.29589 34.4223V2.26781C1.29589 1.73188 1.73188 1.29589 2.26781 1.29589H29.3411C29.8771 1.29589 30.3131 1.73188 30.3131 2.26781V34.4222C30.3131 36.1409 31.0949 37.6801 32.3211 38.7041H5.57775V38.7042ZM40.1726 34.4223C40.1726 36.7834 38.2518 38.7042 35.8907 38.7042C33.5297 38.7042 31.6089 36.7834 31.6089 34.4223V21.9591H39.2007C39.7366 21.9591 40.1726 22.3951 40.1726 22.931V34.4223ZM26.5765 22.0249C26.5765 22.1967 26.5083 22.3615 26.3867 22.483C26.2652 22.6045 26.1004 22.6728 25.9286 22.6728H5.68029C5.50845 22.6728 5.34364 22.6045 5.22212 22.483C5.10061 22.3615 5.03235 22.1967 5.03235 22.0249C5.03235 21.853 5.10061 21.6882 5.22212 21.5667C5.34364 21.4452 5.50845 21.3769 5.68029 21.3769H25.9286C26.1004 21.3769 26.2652 21.4452 26.3867 21.5667C26.5083 21.6882 26.5765 21.853 26.5765 22.0249ZM26.5765 26.0745C26.5765 26.2464 26.5083 26.4112 26.3867 26.5327C26.2652 26.6542 26.1004 26.7225 25.9286 26.7225H5.68029C5.50845 26.7225 5.34364 26.6542 5.22212 26.5327C5.10061 26.4112 5.03235 26.2464 5.03235 26.0745C5.03235 25.9027 5.10061 25.7379 5.22212 25.6164C5.34364 25.4948 5.50845 25.4266 5.68029 25.4266H25.9286C26.1004 25.4266 26.2652 25.4948 26.3867 25.6164C26.5083 25.7379 26.5765 25.9027 26.5765 26.0745ZM26.5765 34.1738C26.5765 34.3457 26.5083 34.5105 26.3867 34.632C26.2652 34.7535 26.1004 34.8218 25.9286 34.8218H5.68029C5.50845 34.8218 5.34364 34.7535 5.22212 34.632C5.10061 34.5105 5.03235 34.3457 5.03235 34.1738C5.03235 34.002 5.10061 33.8372 5.22212 33.7157C5.34364 33.5942 5.50845 33.5259 5.68029 33.5259H25.9286C26.1004 33.5259 26.2652 33.5942 26.3867 33.7157C26.5083 33.8372 26.5765 34.002 26.5765 34.1738ZM26.5765 30.1242C26.5765 30.296 26.5083 30.4608 26.3867 30.5823C26.2652 30.7039 26.1004 30.7721 25.9286 30.7721H5.68029C5.50845 30.7721 5.34364 30.7039 5.22212 30.5823C5.10061 30.4608 5.03235 30.296 5.03235 30.1242C5.03235 29.9523 5.10061 29.7875 5.22212 29.666C5.34364 29.5445 5.50845 29.4762 5.68029 29.4762H25.9286C26.1004 29.4762 26.2652 29.5445 26.3867 29.666C26.5083 29.7875 26.5765 29.9523 26.5765 30.1242ZM26.5765 17.9752C26.5765 18.1471 26.5083 18.3119 26.3867 18.4334C26.2652 18.5549 26.1004 18.6232 25.9286 18.6232H5.68029C5.50845 18.6232 5.34364 18.5549 5.22212 18.4334C5.10061 18.3119 5.03235 18.1471 5.03235 17.9752C5.03235 17.8034 5.10061 17.6386 5.22212 17.517C5.34364 17.3955 5.50845 17.3273 5.68029 17.3273H25.9286C26.1004 17.3273 26.2652 17.3955 26.3867 17.517C26.5083 17.6386 26.5765 17.8034 26.5765 17.9752ZM26.5765 5.82624C26.5765 5.99809 26.5083 6.16289 26.3867 6.28441C26.2652 6.40592 26.1004 6.47419 25.9286 6.47419H5.68029C5.50845 6.47419 5.34364 6.40592 5.22212 6.28441C5.10061 6.16289 5.03235 5.99809 5.03235 5.82624C5.03235 5.6544 5.10061 5.48959 5.22212 5.36807C5.34364 5.24656 5.50845 5.1783 5.68029 5.1783H25.9286C26.1004 5.1783 26.2652 5.24656 26.3867 5.36807C26.5083 5.48959 26.5765 5.6544 26.5765 5.82624ZM26.5765 13.9256C26.5765 14.0974 26.5083 14.2622 26.3867 14.3837C26.2652 14.5052 26.1004 14.5735 25.9286 14.5735H5.68029C5.50845 14.5735 5.34364 14.5052 5.22212 14.3837C5.10061 14.2622 5.03235 14.0974 5.03235 13.9256C5.03235 13.7537 5.10061 13.5889 5.22212 13.4674C5.34364 13.3459 5.50845 13.2776 5.68029 13.2776H25.9286C26.1004 13.2776 26.2652 13.3459 26.3867 13.4674C26.5083 13.5889 26.5765 13.7537 26.5765 13.9256ZM26.5765 9.8759C26.5765 10.0477 26.5083 10.2126 26.3867 10.3341C26.2652 10.4556 26.1004 10.5238 25.9286 10.5238H5.68029C5.50845 10.5238 5.34364 10.4556 5.22212 10.3341C5.10061 10.2126 5.03235 10.0477 5.03235 9.8759C5.03235 9.70405 5.10061 9.53925 5.22212 9.41773C5.34364 9.29622 5.50845 9.22795 5.68029 9.22795H25.9286C26.1004 9.22795 26.2652 9.29622 26.3867 9.41773C26.5083 9.53925 26.5765 9.70405 26.5765 9.8759Z" fill="white"/>
</g>
</svg>
