<svg width="32" height="32" viewBox="0 0 32 32" fill="none" xmlns="http://www.w3.org/2000/svg">
<path d="M28 24.6667C28 26.5393 28 27.4756 27.4944 28.1481C27.2756 28.4393 26.9943 28.6893 26.6667 28.8839C25.91 29.3333 24.8567 29.3333 22.75 29.3333H9.25C7.14331 29.3333 6.08996 29.3333 5.33329 28.8839C5.00572 28.6893 4.72447 28.4393 4.50559 28.1481C4 27.4756 4 26.5393 4 24.6667C4 22.794 4 21.8577 4.50559 21.1852C4.72447 20.894 5.00572 20.644 5.33329 20.4495C6.08996 20 7.14331 20 9.25 20H22.75C24.8567 20 25.91 20 26.6667 20.4495C26.9943 20.644 27.2756 20.894 27.4944 21.1852C28 21.8577 28 22.794 28 24.6667Z" stroke="#E63415" stroke-width="1.5"/>
<path d="M16.0833 5.33203H9.25C7.14331 5.33203 6.08996 5.33203 5.33329 5.78144C5.00572 5.976 4.72447 6.226 4.50559 6.51718C4 7.18978 4 8.12608 4 9.9987C4 11.8713 4 12.8076 4.50559 13.4802C4.72447 13.7714 5.00572 14.0214 5.33329 14.2159C6.08996 14.6654 7.14331 14.6654 9.25 14.6654H22.75C24.8567 14.6654 25.91 14.6654 26.6667 14.2159" stroke="#E63415" stroke-width="1.5" stroke-linecap="round"/>
<path d="M28 10.6671L20 2.66797M28 2.66882L20 10.668" stroke="#E63415" stroke-width="1.5" stroke-linecap="round" stroke-linejoin="round"/>
</svg>
