<svg width="141" height="152" viewBox="0 0 141 152" fill="none" xmlns="http://www.w3.org/2000/svg">
<path id="&#216;&#159;" d="M97.6478 109.684H67.9746C67.9746 77.2632 0 98.9474 0 41.2632C0 11.7895 25.8851 0 71.9731 0C115.957 0 141 13.0526 141 44V55.5789H109.222V48.6316C109.222 32.4211 97.6478 24.6316 71.5522 24.6316C41.4582 24.6316 31.9881 31.7895 31.9881 43.1579C31.9881 73.6842 97.6478 56.8421 97.6478 109.684ZM82.706 152C73.6567 152 66.291 144.632 66.291 135.368C66.291 126.316 73.6567 118.947 82.706 118.947C91.9657 118.947 99.3313 126.316 99.3313 135.368C99.3313 144.632 91.9657 152 82.706 152Z" fill="white" fill-opacity="0.08"/>
</svg>
